<svg id="ICONS" xmlns="http://www.w3.org/2000/svg" viewBox="0 0 24 24"><circle cx="11.94" cy="12.05" r="10.78" style="fill:#7f557b"/><circle cx="12.02" cy="11.95" r="10.78" style="fill:none;stroke:#fff;stroke-miterlimit:10"/><path d="M9,16.71A1.74,1.74,0,0,1,7.21,15V9.64A1.74,1.74,0,0,1,9,7.9h1.24v8.81Z" style="fill:#fff"/><path d="M10.09,8v8.61H9A1.65,1.65,0,0,1,7.31,15V9.64A1.64,1.64,0,0,1,9,8h1.14m.2-.2H9A1.84,1.84,0,0,0,7.11,9.64V15A1.84,1.84,0,0,0,9,16.81h1.34v-9Z" style="fill:#fff"/><circle cx="8.7" cy="10.06" r="0.74" style="fill:#7f557b"/><line x1="9.38" y1="8.65" x2="9.88" y2="8.65" style="fill:none;stroke:#7f557b;stroke-miterlimit:10;stroke-width:0.15px"/><circle cx="8.72" cy="11.86" r="0.26" style="fill:#7f557b"/><circle cx="9.43" cy="12.55" r="0.26" style="fill:#7f557b"/><circle cx="8.72" cy="13.25" r="0.26" style="fill:#7f557b"/><circle cx="7.99" cy="12.55" r="0.26" style="fill:#7f557b"/><path d="M14,13.53V4.72h1.29A1.69,1.69,0,0,1,17,6.4v5.44a1.69,1.69,0,0,1-1.69,1.69Z" style="fill:#fff"/><path d="M15.27,4.82A1.59,1.59,0,0,1,16.86,6.4v5.44a1.59,1.59,0,0,1-1.59,1.59H14.08V4.82h1.19m0-.2H13.88v9h1.39a1.79,1.79,0,0,0,1.79-1.79V6.4a1.79,1.79,0,0,0-1.79-1.78Z" style="fill:#fff"/><circle cx="15.47" cy="9.43" r="0.74" style="fill:#7f557b"/><line x1="14.79" y1="5.47" x2="14.29" y2="5.47" style="fill:none;stroke:#7f557b;stroke-miterlimit:10;stroke-width:0.15px"/><line x1="14.54" y1="5.22" x2="14.54" y2="5.72" style="fill:none;stroke:#7f557b;stroke-miterlimit:10;stroke-width:0.15px"/><circle cx="15.45" cy="6.31" r="0.26" style="fill:#7f557b"/><circle cx="14.73" cy="7" r="0.26" style="fill:#7f557b"/><circle cx="15.45" cy="7.7" r="0.26" style="fill:#7f557b"/><circle cx="16.18" cy="7" r="0.26" style="fill:#7f557b"/><path d="M13.51,7.8H10.63c0,.14-.05.24-.12.24v8.77h3.12V8C13.56,8,13.51,7.94,13.51,7.8Z" style="fill:#fff;stroke:#7f557b;stroke-miterlimit:10;stroke-width:0.2px"/><path d="M6.88,15.05V9.94A11.13,11.13,0,0,0,6,12a15.83,15.83,0,0,0-.78,3.76c0,.77-.13,1.89.88,2.16C7,18.14,7.56,17,7.73,16.6A1.85,1.85,0,0,1,6.88,15.05Z" style="fill:#fff;stroke:#7f557b;stroke-miterlimit:10;stroke-width:0.2px"/><path d="M17.91,10.91a2.67,2.67,0,0,0-.62-1.13l0,.05V12a1.85,1.85,0,0,1-1.8,1.84,18.73,18.73,0,0,0,.68,2.42c.33.84,1,1.71,1.76,1.3s.75-1.27.77-2.24A27.31,27.31,0,0,0,17.91,10.91Z" style="fill:#fff;stroke:#7f557b;stroke-miterlimit:10;stroke-width:0.2px"/></svg>