<svg id="ICONS" xmlns="http://www.w3.org/2000/svg" viewBox="0 0 24.04 24.04"><circle cx="11.98" cy="12.14" r="10.78" style="fill:#a2b9c9"/><circle cx="12.06" cy="12.04" r="10.78" style="fill:none;stroke:#fff;stroke-miterlimit:10"/><polygon points="7.54 16.15 8.72 17.18 16.38 8.68 15.21 7.64 7.54 16.15" style="fill:#fff;stroke:#a2b9c9;stroke-miterlimit:10;stroke-width:0.1px"/><path d="M6.48,17.32a.23.23,0,0,0,0,.32l.83.75a.23.23,0,0,0,.32,0l.53-.59L7,16.75Z" style="fill:#fff;stroke:#a2b9c9;stroke-miterlimit:10;stroke-width:0.1px"/><path d="M17.88,17.54c-1.34-1.64-2.79-3.17-4.23-4.71-1.33-1.36-2.67-2.71-4.07-4a1.59,1.59,0,0,1-.48.76,1.32,1.32,0,0,1-.72.32c1.29,1.43,2.66,2.78,4,4.13s3.07,2.9,4.71,4.24a.54.54,0,0,0,.75-.76Z" style="fill:#fff;stroke:#a2b9c9;stroke-miterlimit:10;stroke-width:0.30000000000000004px"/><path d="M8.94,9.51a1.29,1.29,0,0,0,.48-.8,1.79,1.79,0,0,0,0-.61,1.33,1.33,0,0,0-.21-.54l0-.07C8.71,7,7.74,7.34,7.65,6.63s-.12-.9-.12-.9a5.42,5.42,0,0,0-1,2.3,1.89,1.89,0,0,0,.49,1.21,2.44,2.44,0,0,0,.64.42A1.26,1.26,0,0,0,8.94,9.51Z" style="fill:#fff;stroke:#a2b9c9;stroke-miterlimit:10;stroke-width:0.30000000000000004px"/><polygon points="17.73 5.98 15.62 7.2 16.77 8.22 17.73 5.98" style="fill:#fff;stroke:#a2b9c9;stroke-miterlimit:10;stroke-width:0.1px"/></svg>