<svg id="ICONS" xmlns="http://www.w3.org/2000/svg" viewBox="0 0 24 24"><circle cx="11.96" cy="12.03" r="10.78" style="fill:#a2b9c9"/><circle cx="12.04" cy="11.93" r="10.78" style="fill:none;stroke:#fff;stroke-miterlimit:10"/><path d="M14.94,16a.56.56,0,0,1,.37.19.8.8,0,0,1,.15.21c.08.16.15.33.23.49a.93.93,0,0,1,0,.9,1.9,1.9,0,0,1-.5.59,5.26,5.26,0,0,1-1.23.73l-.51.21.11.1.21.18a.37.37,0,0,1,.15.31v.78a.28.28,0,0,1-.11.22.82.82,0,0,1-.39.15,1.42,1.42,0,0,1-.29,0H10.87A1.48,1.48,0,0,1,10.4,21l-.14-.07a.31.31,0,0,1-.18-.3c0-.23,0-.45,0-.68a.47.47,0,0,1,.2-.41l.22-.18.06-.05-.51-.22a5.6,5.6,0,0,1-1.14-.65,2.25,2.25,0,0,1-.54-.57,1.35,1.35,0,0,1-.18-.47.87.87,0,0,1,.08-.48c.08-.18.17-.37.26-.55A.68.68,0,0,1,9,16H9l0-.05a6.38,6.38,0,0,1-.66-1.73,4.54,4.54,0,0,1-.14-1c0-.23,0-.45,0-.68V9.12c0-.06,0-.07.07-.07h7.39c.12,0,.12,0,.12.12,0,1.21,0,2.42,0,3.63a6.41,6.41,0,0,1-.24,1.74A6.32,6.32,0,0,1,15,15.86Zm.75-4V9.14H8.29V12Zm-2.94,4.73a.26.26,0,0,1-.1.22l-.1.07L12,17.4a1,1,0,0,0-.3.38,1.54,1.54,0,0,0,0,.17c0,.09,0,.12.12.13a.8.8,0,0,0,.62-.22,2.91,2.91,0,0,0,.58-.68,1.18,1.18,0,0,1,.24-.31,1.43,1.43,0,0,0,.4-.78,1,1,0,0,0-.1-.7,1.26,1.26,0,0,0-1-.67,2,2,0,0,0-1.08.23,1.15,1.15,0,0,1-.39.11.6.6,0,0,0-.27.07c-.16.08-.32.16-.47.25a1.07,1.07,0,0,0-.16.14l-.06.06s0,.05,0,.09l.05,0h0s0,0,0,0l0,0c0,.08.06.08.15.07a.12.12,0,0,1,.16.1.12.12,0,0,1-.08.12.22.22,0,0,0,.11,0l.28,0a.47.47,0,0,1,.55.35s0,0,0,.06a.19.19,0,0,1-.12.23l-.13,0c-.09,0-.13,0-.15.13s.08-.08.15-.07v.07h.21a.2.2,0,0,0,.15-.06l.33-.27a.16.16,0,0,0,.08-.14c0-.09,0-.18,0-.26s0,0,0-.06a.05.05,0,0,1,0,0l0,0s0,0,0,0,0,.22,0,.33a.87.87,0,0,0,.39.16l0-.05a.47.47,0,0,1,0-.57l0-.05.09-.12s0-.09.05-.14,0,0,0,0,0,0,0,0a.07.07,0,0,1,0,.05c0,.06,0,.12-.08.17l-.14.18a.35.35,0,0,0-.06.22.47.47,0,0,0,.32.41l.14,0Zm-3.5.78a4.43,4.43,0,0,0,.8.53l.68.32a1.41,1.41,0,0,1,.35.23.7.7,0,0,1,.25.55c0,.16,0,.32,0,.49a.51.51,0,0,1-.18.41l-.05.06h1.79L12.81,20a.43.43,0,0,1-.15-.36v-.56a.66.66,0,0,1,.19-.46,1.41,1.41,0,0,1,.37-.27l.55-.26a4.23,4.23,0,0,0,.89-.54l.07-.06-.39-.57,0,0s0,0,0,0a9.06,9.06,0,0,1-2.17,2c-.14.09-.1.09-.24,0a9.2,9.2,0,0,1-2.06-1.83l-.16-.2Zm2,2.25a.43.43,0,0,1,0-.05v-.61s0-.08,0-.12a.69.69,0,0,0-.27-.38,2.23,2.23,0,0,0-.45-.25,8.46,8.46,0,0,1-.85-.43,3.5,3.5,0,0,1-.78-.65,1,1,0,0,1-.28-.75v0c-.09.21-.19.4-.27.59a.73.73,0,0,0,0,.25.83.83,0,0,0,.12.49,2.13,2.13,0,0,0,.56.6,5.62,5.62,0,0,0,1.31.73l.52.22A.8.8,0,0,1,11.23,19.71Zm4.16-3.25a1.77,1.77,0,0,1,0,.23,1.12,1.12,0,0,1-.28.54,3.84,3.84,0,0,1-1.13.83l-.65.31a1.44,1.44,0,0,0-.4.28.53.53,0,0,0-.17.37c0,.2,0,.4,0,.59,0,0,0,.06,0,.09a.47.47,0,0,1,.23-.25l.39-.21L14,19a5.21,5.21,0,0,0,1.08-.66,2,2,0,0,0,.46-.53.85.85,0,0,0,.09-.71c-.08-.21-.18-.4-.27-.6ZM10.18,19.9s0,0,0,0v.75a.22.22,0,0,0,.1.18,1,1,0,0,0,.18.08,1.48,1.48,0,0,0,.47.06H13l.32,0a.82.82,0,0,0,.34-.09.26.26,0,0,0,.16-.25c0-.22,0-.44,0-.66v-.08a.72.72,0,0,1-.34.21,1.45,1.45,0,0,1-.35,0H10.75A.84.84,0,0,1,10.18,19.9Zm1.05-7.4h-.14a.28.28,0,0,1-.18-.06l-.11-.08a.48.48,0,0,0-.42,0,.17.17,0,0,0-.12.19V13.7h0l0,0a.43.43,0,0,1,.38-.07,1.09,1.09,0,0,1,.23.09.58.58,0,0,0,.32,0Zm1.51,1.23a.73.73,0,0,0,.39-.06.35.35,0,0,1,.13-.05.41.41,0,0,1,.4.06l0,0V12.55a.19.19,0,0,0-.16-.21.44.44,0,0,0-.43.06l-.06,0a.25.25,0,0,1-.2.06h-.12Zm2-1.24a.48.48,0,0,1-.43-.12h0a.51.51,0,0,0-.4,0,.18.18,0,0,0-.12.19v1.17l0,0a.42.42,0,0,1,.39-.07l.19.07a.7.7,0,0,0,.35.05ZM9.2,13.73a.55.55,0,0,0,.36-.05l.18-.06a.4.4,0,0,1,.38.06l0,0h0V12.5a.11.11,0,0,0,0-.08.35.35,0,0,0-.13-.08.46.46,0,0,0-.41.06l-.08,0a.28.28,0,0,1-.18.06H9.2ZM15,12.62s0,.05,0,.07v1.16c0,.09,0,.1-.09.1h-.89a.14.14,0,0,0-.11,0,.33.33,0,0,1-.39,0,.13.13,0,0,0-.1,0h-.93s-.06,0-.06-.06V12.62h-.09v1.43h1.08a.17.17,0,0,1,.12,0,.32.32,0,0,0,.35,0,.2.2,0,0,1,.13,0h1.07V12.62Zm-3.54,0V13.9s0,0-.05,0h-.93a.14.14,0,0,0-.11,0A.32.32,0,0,1,10,14a.23.23,0,0,0-.11,0H9l0,0s0,0,0-.06V12.63s0,0,0,0h0v1.42H9.92a.15.15,0,0,1,.11,0,.3.3,0,0,0,.36,0,.19.19,0,0,1,.12,0h1.08V12.63Zm3.35-.09v1.18c0,.1,0,.1-.11.1a.85.85,0,0,1-.44-.09l-.07,0a.34.34,0,0,0-.38.07.13.13,0,0,1-.2,0,.36.36,0,0,0-.37-.08l-.09,0a.78.78,0,0,1-.45.09c-.09,0-.1,0-.1-.1V12.55a.11.11,0,0,0-.09.14v1.17h.92a.2.2,0,0,1,.13,0,.24.24,0,0,0,.3,0,.19.19,0,0,1,.12,0H15V12.6Zm-3.43,1.32V12.68c0-.08,0-.1-.1-.12v1.13c0,.15,0,.13-.14.13a.66.66,0,0,1-.39-.08l-.11,0a.37.37,0,0,0-.36.07.14.14,0,0,1-.22,0,.31.31,0,0,0-.32-.07.49.49,0,0,0-.17.06,1,1,0,0,1-.45.06s-.05,0-.05-.05V12.55a.13.13,0,0,0-.1.14c0,.36,0,.72,0,1.08v.09h.92a.2.2,0,0,1,.13,0,.23.23,0,0,0,.31,0,.15.15,0,0,1,.11,0h.94Zm1.91,5.49-.17.09-.11.06-.15.13a.2.2,0,0,0,0,.25c0,.06.1.11.15.17h.05a3.16,3.16,0,0,0,.32,0,.56.56,0,0,0,.32-.15.14.14,0,0,0,0-.23Zm-2.68,0-.36.31c-.08.07-.09.14,0,.21a.71.71,0,0,0,.18.12,1.21,1.21,0,0,0,.37.07.22.22,0,0,0,.22-.09s0,0,0,0a.17.17,0,0,0,.05-.12.29.29,0,0,0-.12-.23A1.79,1.79,0,0,0,10.65,19.35Zm-1.1-2.57c-.14-.23-.29-.45-.43-.67,0,0,0,0-.07,0a.38.38,0,0,0-.27.16.59.59,0,0,0-.08.47.77.77,0,0,0,.11.27c0-.07.08-.12.12-.18l.13-.18c0-.06.07-.06.1,0A.33.33,0,0,0,9.55,16.78Zm4.88,0a.35.35,0,0,0,.39-.14c0-.09.06-.09.11,0a.61.61,0,0,1,.07.1l.17.25a.72.72,0,0,0,.13-.42.5.5,0,0,0-.14-.37.41.41,0,0,0-.23-.11s0,0-.07,0Zm-4.88.1a.44.44,0,0,1-.44-.18l-.25.37.32.34Zm5.25.53.33-.34-.25-.37a.44.44,0,0,1-.44.18Zm-2.12-.66-.33-.12h0l-.28,0a.3.3,0,0,0-.32.18l0,0a.25.25,0,0,1,.28-.12c-.07.06-.17.07-.2.17h.06a.89.89,0,0,1,.32,0h.4S12.68,16.79,12.68,16.75Zm-1.51-.34c0-.09,0-.19-.14-.25a.25.25,0,0,1-.15.08.42.42,0,0,0-.12,0,.2.2,0,0,0-.1.3s0,0,0-.05a.17.17,0,0,1,.05-.14.22.22,0,0,0,0,.08s0,0,0,.06l0,0s0,0,0,0,.07-.09.16-.06l.09,0S11.14,16.45,11.17,16.41Z" style="fill:#033166"/><path d="M10.09,6.61,10,6.52l-.14.09c-.12.06-.21,0-.24-.12v0h-.1a.16.16,0,0,1-.13-.09.13.13,0,0,1,.07-.18l.08,0V6.09h0l-.1,0a.14.14,0,0,1-.15,0s0-.07,0-.16a.6.6,0,0,1-.11-.06.13.13,0,0,1-.06-.18.14.14,0,0,1,.13-.1h.1s0,0,0,0,.06-.13.15-.11a.19.19,0,0,1,.08,0l.08,0a.17.17,0,0,1,.13-.08s0,0,.05-.05H9.74l-.09,0a.13.13,0,0,1-.17-.15l0,0-.1,0a.2.2,0,0,1-.06-.27.16.16,0,0,1,.18-.06s0,0,0,0,.1-.15.19-.12.07,0,.09,0L9.7,4.62a.14.14,0,0,1,0-.25l0,0a.13.13,0,0,1,0-.06.32.32,0,0,1,0-.14A.12.12,0,0,1,10,4.09l.06.06,0-.05c.06-.08.14-.08.19,0a.35.35,0,0,1,0,.11s0,0,0,0l0,0a.11.11,0,0,1,.16.06.53.53,0,0,1,0,.12.13.13,0,0,0,0,.06h0a.2.2,0,0,0,0-.24.12.12,0,0,1,0-.16A.17.17,0,0,1,10.67,4l.15.07s.07,0,.1,0l-.05,0L10.75,4a.15.15,0,0,1,0-.25l0,0,0-.12a.17.17,0,0,1,0-.2.18.18,0,0,1,.22,0l0,0a.13.13,0,0,1,.13-.13,1.24,1.24,0,0,1,0-.16.13.13,0,0,1,.05-.14.15.15,0,0,1,.16,0l.14.12c.15,0,.21,0,.23.21.09,0,.12,0,.12.13s0,.14,0,.2a.28.28,0,0,1,0,.09L12,3.56a.59.59,0,0,1-.06-.14c-.05-.13,0-.2.15-.19h0l0-.12c.06-.14.15-.16.26-.06l0,0,.13.05s0,0,0-.05L12.69,3a.14.14,0,0,1,.19.12.45.45,0,0,0,0,.11c.06,0,.13.07.14.15a.2.2,0,0,1-.1.18l0,.19.09-.08a.19.19,0,0,1,.27,0,.15.15,0,0,1,0,.2l-.08.1,0,0h0a.73.73,0,0,1,.08-.09s.07,0,.12,0l.06,0,.07-.06c.12-.09.18-.08.28,0l.07,0h.11a.15.15,0,0,1,.08.24l-.07.07v.17l.1,0a.17.17,0,0,1,.19,0,.16.16,0,0,1,0,.2v0s.05,0,.06.07a.18.18,0,0,1,0,.1h.07a.15.15,0,0,1,.18.06.18.18,0,0,1,0,.21,1.09,1.09,0,0,1-.11.1l0,0a.1.1,0,0,1-.07.15h-.14l-.15,0c0,.12-.07.15-.18.16a.15.15,0,0,1,.07.13s0,0,0,.06l.12,0a.16.16,0,0,1,.24.16l.14.05a.18.18,0,0,1,.08.22.15.15,0,0,1-.13.1h-.11c0,.05,0,.12-.09.13a.65.65,0,0,1-.19,0l-.08.12a.09.09,0,0,1-.09.06H14a.16.16,0,0,1-.12.12s0,0-.06.07l0,0a.11.11,0,0,1,0,.14.13.13,0,0,1-.15.08.15.15,0,0,0-.13,0,.12.12,0,0,1-.15,0l-.08-.06c-.11.07-.19,0-.26-.07l-.06-.12a.14.14,0,0,1-.16-.12,1.24,1.24,0,0,0,0-.16l-.07,0a.76.76,0,0,0-.37.52,1.41,1.41,0,0,0,0,.5.51.51,0,0,0,.29.39L13,8,13.2,8a.31.31,0,0,1,.09.07c0,.06.09.07.15.08s0,0,.06,0a.34.34,0,0,1,.36.07.3.3,0,0,1,.07.31.28.28,0,0,1-.23.19.41.41,0,0,1-.22,0,.09.09,0,0,0-.1,0,.33.33,0,0,1-.24,0h-.09a.28.28,0,0,1-.22,0h-.1a.3.3,0,0,1-.23,0h-.08a.28.28,0,0,1-.22,0h-.11a.3.3,0,0,1-.23,0h-.07a.31.31,0,0,1-.23,0h-.1a.33.33,0,0,1-.24,0h-.07a.29.29,0,0,1-.24,0s-.05,0-.08,0a.39.39,0,0,1-.26,0h-.1a.36.36,0,0,1-.25,0,.28.28,0,0,1-.19-.3.29.29,0,0,1,.26-.27.34.34,0,0,1,.2,0h.09s.07,0,.1,0a.28.28,0,0,0,.15-.06,4.56,4.56,0,0,1,.44-.24.63.63,0,0,0,.35-.47.13.13,0,0,0,0-.12L11.45,7a2.53,2.53,0,0,1-.13-.22,1,1,0,0,0-.24-.3L11,6.44s0,.07,0,.11a.67.67,0,0,1-.06.12c-.05.09-.08.09-.18,0l0,.09a.26.26,0,0,1-.13.14c-.1,0-.16,0-.21-.08l-.09,0-.09,0a.14.14,0,0,1-.14,0,.16.16,0,0,1,0-.16.36.36,0,0,1,.07-.1Zm2.72-1.43.17-.1-.05-.14-.14.11a.14.14,0,0,1,0,.06s0,0,0,.07h0Zm0,1a.55.55,0,0,0,.31,0s0,0,0,0,0-.09,0-.12l.14,0c.05,0,.06,0,0-.1s0-.07,0-.13a.3.3,0,0,0,.08-.08h-.09a.12.12,0,0,1-.09.12H13c0,.11-.11.07-.18.08s0,.08-.1.11-.06,0,0,.12a.7.7,0,0,1,.4-.2c0,.06,0,.07-.11.11a.27.27,0,0,0-.15.21h0ZM11.45,6h0l0,.26a.73.73,0,0,0,.28.51l.06,0a3.11,3.11,0,0,0,0-.33.77.77,0,0,0-.07-.26A.34.34,0,0,0,11.45,6Zm0-1.91h0a0,0,0,0,0,0,0c-.05-.12,0-.18.1-.21v-.1c0-.06,0-.07-.07,0s-.09,0-.1-.05a.88.88,0,0,0,0-.16s0-.07-.05-.07,0,0-.06.05v0c0,.07-.07.07-.13,0s0,0,0,0L11,3.42a.11.11,0,0,0-.12,0s0,.07,0,.11a.93.93,0,0,1,0,.1c0,.08,0,.09,0,.13a.07.07,0,0,0,0,.12.31.31,0,0,0,.1,0L11,4a.05.05,0,0,1,0,.08L11,4.17l.11,0c0-.05,0-.1,0-.12a1,1,0,0,1,.13,0l-.07-.12s-.07-.07,0-.13l.07.05a.49.49,0,0,1,.14.23S11.37,4.12,11.41,4.11Zm1.34,4.06h0v0c0-.06-.06-.08-.11-.11L12.53,8a.54.54,0,0,1-.32-.37,1.57,1.57,0,0,1,0-.61s0,0,0-.06a.44.44,0,0,1,0,.1c0,.14,0,.28,0,.43a.49.49,0,0,0,.34.45.33.33,0,0,1,.24.22.42.42,0,0,1,.17,0,.24.24,0,0,0,.2,0l-.08-.05L12.89,8a1.71,1.71,0,0,1-.27-.14.61.61,0,0,1-.26-.4,1.29,1.29,0,0,1,0-.48.81.81,0,0,1,.31-.56l.19-.12-.15,0s-.06,0-.06,0V6.2h0l0,0-.16.2s0,0-.06,0,0,0,0-.06,0-.12,0-.18a1,1,0,0,1,.17-.54v0l-.07,0-.07,0c-.05,0-.06,0-.07,0l0-.06a.52.52,0,0,0,0,.11s0,.06-.08.07a0,0,0,0,0,0,0,1.1,1.1,0,0,1,0,.67l-.06.06s0,0-.06,0l-.18-.3A1.72,1.72,0,0,1,11.79,6a.62.62,0,0,1,0-.19l-.23,0-.09.11h0a.47.47,0,0,1,.33.34,1.86,1.86,0,0,1,.06.34.88.88,0,0,1,0,.23c0,.1-.05.12-.13.06a.83.83,0,0,1-.37-.71.65.65,0,0,0,0-.19.11.11,0,0,0-.07-.08c0,.21,0,.22-.11.24s0,.12-.08.15l-.08,0a1,1,0,0,1,.39.4c.06.11.12.22.19.33l.12.2a.19.19,0,0,1,0,.07.72.72,0,0,1-.4.59l-.4.21.27,0A.37.37,0,0,1,11.58,8a2,2,0,0,1,.13-.25,1,1,0,0,1,.13-.23.19.19,0,0,1,0,.08.93.93,0,0,1-.13.31.29.29,0,0,0-.05.2l.15,0a.78.78,0,0,1,.1-.15.18.18,0,0,1,.31.06.11.11,0,0,1,0,.05l.2,0h0A.42.42,0,0,1,12.75,8.17Zm-.51-2.73h-.06c-.06,0-.07,0-.08-.07l0-.06A.25.25,0,0,0,12,5.17l0,0c-.08,0-.09,0-.14,0A.36.36,0,0,0,11.69,5l0,.07s0,.07-.08,0a.09.09,0,0,0-.11,0,.09.09,0,0,0,0,.11.09.09,0,0,1,0,.13s0,.08,0,.1a.35.35,0,0,1,.11,0c.06,0,.07,0,0,.09l0,0s0,.07,0,.11.05,0,.09,0l.05,0,.14,0v.09a.27.27,0,0,0,.23,0A.48.48,0,0,0,12,5.58l-.13-.11-.05,0v0a1.06,1.06,0,0,1,.4.3Zm.68-.88h0c-.08,0-.08,0-.09-.1a.31.31,0,0,1,0-.11l-.12.08s-.05,0-.07,0-.07,0-.09,0l0,.13c0,.06,0,.06-.08,0s-.06,0-.07,0a.14.14,0,0,0,0,.09s0,.1,0,.14,0,.07,0,.09-.06,0-.06.08a.51.51,0,0,0,.06.2c.14-.31.17-.36.24-.39a3.75,3.75,0,0,0-.17.47.9.9,0,0,0,.3-.17.1.1,0,0,0,0-.09l-.08,0c0-.1.17-.11.22-.2s-.08-.08,0-.15l0,0A.12.12,0,0,0,12.92,4.56Zm.64,0c.11,0,.12,0,.1.16a.49.49,0,0,0,0,.12c.1,0,.16-.11.26-.13l-.05.07a1.73,1.73,0,0,1-.21.17c-.07.06-.13.11-.13.2a.52.52,0,0,0,.35,0c.08,0,.09-.06.05-.12a.08.08,0,0,1,0-.08s0,0,.08,0h.21a.12.12,0,0,0,.05-.05.09.09,0,0,0,0,0l-.08-.06.08-.08.1-.08s0,0,0-.06a.06.06,0,0,0,0-.08s-.05,0-.07,0a.28.28,0,0,0-.12,0c-.06,0-.07,0-.1,0s-.05,0-.09,0a.35.35,0,0,0-.11.1c-.06.06-.07.06-.15,0S13.61,4.46,13.56,4.54Zm-2.79.1-.2-.06h0c-.07,0-.11,0-.12-.08V4.43s0-.08,0-.11l-.06.06a.06.06,0,0,1-.1,0s0-.07,0-.09,0-.1,0-.13l0,0,0,0s-.05,0-.09,0-.05,0-.07-.06,0,0-.06,0a.07.07,0,0,0,0,.07.38.38,0,0,1,0,.1c0,.08,0,.09-.05.13l-.08,0,.1.09.14.07s0,.07,0,.09l-.09,0,0,.06,0,.06.1,0c.07,0,.11,0,.13.07s0,0,0,.07a.05.05,0,0,0,0,0l.09-.13v-.1l0,0A.7.7,0,0,1,10,4.5a.11.11,0,0,1,0-.11c0,.07.08.12.12.18a.47.47,0,0,0,.14.14,1.29,1.29,0,0,1,.24,0,2,2,0,0,1,.25,0ZM10.41,5.8s0,0,.06.06l.08,0s0,0,0,.08,0,0-.06.06.07.05.1.05a.32.32,0,0,0,.14,0c.06,0,.08,0,.05.08a.19.19,0,0,1,0,.07c.1,0,.19,0,.3,0a.41.41,0,0,0-.14-.15l-.2-.16-.05-.07v0l.1,0,.27.18.12,0a.56.56,0,0,0-.06-.29l0,0s-.07,0-.08,0V5.77a.39.39,0,0,0-.08-.2.59.59,0,0,0,0,.08l-.05,0s0,0,0,0,0,0,0,0a.18.18,0,0,0-.1-.11c-.08.1-.08.09-.17,0s-.09,0-.12,0,0,.06,0,.12.07.11,0,.15ZM12.5,3.74h0c-.11,0-.12,0-.06-.12a.41.41,0,0,0,.07-.11.12.12,0,0,0,0-.14h0s-.06,0-.08,0a.19.19,0,0,1,0-.08.2.2,0,0,0,0-.17c0-.05-.09-.05-.11,0s0,.08-.05.12,0,.07-.1.07H12a.28.28,0,0,1,0,.09l.07.14c0,.07,0,.09-.06.11l-.07,0a.19.19,0,0,1,.18.23l0,.12s0,0,0,0h.06l.11-.5h0a.41.41,0,0,1,0,.11c0,.11,0,.21,0,.32a.15.15,0,0,0,0,.07l.18-.1,0,0A.54.54,0,0,0,12.5,3.74ZM13,6.56c.09,0,.11,0,.14,0a1,1,0,0,0,.07.15s.07,0,.11,0a.05.05,0,0,1,.08,0l.09.08s.06,0,.09,0a.1.1,0,0,1,.14,0s.08,0,.09,0-.14-.11,0-.2l-.07,0c-.13,0-.13,0-.09-.16h0l-.19,0a.07.07,0,0,1-.06-.07s0,0,0,0a.39.39,0,0,0-.27,0l.06,0a.55.55,0,0,1,.19.15s0,0,0,.08a1.52,1.52,0,0,0-.38-.2Zm-.44-1a1.65,1.65,0,0,1,.53-.13.18.18,0,0,1-.09.06l-.24.1a.33.33,0,0,0-.16.15l.23,0c0-.1.05-.11.15-.09l.09,0h.1l0-.11c.08,0,.18,0,.25,0v0c0-.07,0-.09,0-.12a.1.1,0,0,0,.05,0,.07.07,0,0,0,0-.06.09.09,0,0,0,0,0l-.13,0a.07.07,0,0,1-.06,0c-.06-.06-.06-.06-.13,0l0,0a.06.06,0,0,1-.09,0l0,0-.07,0-.1.09s-.08,0-.12,0A.48.48,0,0,0,12.58,5.52Zm2-.29s0,0,0,0,0-.11,0-.15l.06,0a.1.1,0,0,0,0-.12s-.05,0-.09,0l-.06,0c-.08,0-.1,0-.11-.08v0a.07.07,0,0,0-.09-.06l-.05,0c.05,0,.09.1.06.17s-.09.09-.16.1H14a.14.14,0,0,1-.09.2.11.11,0,0,1-.07,0h-.24v.06s.08,0,.11,0l.38,0c.07,0,.08,0,.09-.08s0-.08.1-.08l.13,0A.21.21,0,0,0,14.57,5.23ZM11.39,5s0,0-.1,0-.06,0-.09,0a.27.27,0,0,0-.06-.1s-.05,0-.08,0A.15.15,0,0,0,11,5c0,.07,0,.13-.09.15s0,.07,0,.1l.07.08,0,.07a.06.06,0,0,0,0,.09c0,.07.07.13.1.2h.08c0-.24,0-.32,0-.37a.19.19,0,0,0,0,.08c0,.12,0,.23.07.35a.09.09,0,0,0,.08.09l.07-.07a.15.15,0,0,0,0-.11V5.55c-.18,0-.23-.14-.11-.28A.2.2,0,0,1,11.39,5Zm-.54-.37c.09,0,.13.07.17.14s.2,0,.25.13a.32.32,0,0,1,.15,0,.29.29,0,0,0,.16,0l0,0-.06-.12-.06,0a.44.44,0,0,1-.33-.09c-.05,0-.09-.09-.06-.16a.07.07,0,0,0,0,0,.34.34,0,0,1,0-.26c-.07,0-.15,0-.19-.11h0l-.13-.07-.08,0a.19.19,0,0,0-.09,0s0,.06,0,.08a.47.47,0,0,0,.06.09.08.08,0,0,1,0,.08c0,.14,0,.14.11.16S10.85,4.55,10.85,4.67Zm1.41.25a.43.43,0,0,1,0-.25s0-.07-.06-.1l-.05.06s0,0-.09,0L12,4.54a.71.71,0,0,0-.09-.07c-.06,0-.11,0-.12.06v.12a.09.09,0,0,1-.05.1s-.06.07,0,.11l.07.07.12.09a.61.61,0,0,0,.07.1h0c.1-.06.16,0,.19.07l.06.17h0c0-.07,0-.12-.06-.18A.21.21,0,0,1,12.26,4.92ZM10.34,6.3l0,0a.09.09,0,0,1,0,.07l-.06,0h-.07a.09.09,0,0,0-.08.14c0,.05,0,.07,0,.11l-.07.08a.08.08,0,0,0,0,.12l.17-.07c.11,0,.13,0,.17.07h0a.16.16,0,0,0,.15-.11l.05-.12c0-.08.09-.08.15,0h0l.11-.26a3.66,3.66,0,0,0-.53.21.91.91,0,0,1,.37-.27.11.11,0,0,1-.05-.15h-.1s0,.06,0,.09a0,0,0,0,1,0,.05h0l-.1,0C10.42,6.27,10.38,6.26,10.34,6.3Zm2.55-1.84c.09,0,.15-.06.12-.12s0-.07,0-.11l.13-.08c.05,0,.05-.07,0-.12s0-.05,0-.09l.08-.1s0-.06,0-.1a.1.1,0,0,0-.15,0L13,3.84a.05.05,0,0,1-.08,0l0-.08a.11.11,0,0,0-.09.08.61.61,0,0,0,0,.12s0,.05-.08,0h-.07l.08.25a.6.6,0,0,1,.27-.2,2,2,0,0,1-.17.23C12.88,4.27,12.87,4.37,12.89,4.46ZM9.64,6.21l0,0-.06,0s0,0,0,0a.07.07,0,0,0,.06.07h.06c.1,0,.1,0,.13.1s0,.08.1,0L10,6.47s.07-.06.12,0a.18.18,0,0,1,.16-.11l0-.11a.19.19,0,0,1-.12-.2L10,6c-.07,0-.13,0-.13.06s0,.1,0,.12-.08,0-.12,0-.06,0-.11,0Zm0-1.4v0c0,.12,0,.12-.13.11A.08.08,0,0,0,9.4,5s0,.08,0,.1l.12,0c.06,0,.07,0,0,.09h0s0,0,0,.07h.07l.06,0h.07a.11.11,0,0,1,.12,0,.09.09,0,0,1,0,.1.08.08,0,0,1,0,0l.05,0a.18.18,0,0,1,.07,0l.08,0a.1.1,0,0,0,0,0l0,0,0,0a.16.16,0,0,1,0-.25l0,0,0-.12L10,5c-.07,0-.09,0-.13,0l-.06-.07A.14.14,0,0,0,9.63,4.81Zm2.49-.65H12c-.06,0-.08,0-.06-.1s0-.08,0-.12A.1.1,0,0,0,12,3.79s0,0,0,0-.08,0-.14,0a.73.73,0,0,0-.08-.09s-.06,0-.08,0,0,.05,0,.07,0,.08,0,.12,0,.08-.07.09h-.06a.24.24,0,0,0,.08.15s.07.07,0,.13,0,0,0,0l.12.13,0,0a.66.66,0,0,1,0-.34.21.21,0,0,1,0,.06l0,.14c0,.09,0,.16.14.18h0s0-.11.08-.13A.14.14,0,0,0,12.12,4.16Zm1.16.14c.06,0,.11-.06.16-.06a.35.35,0,0,0,.18-.06l.12,0h.06a1,1,0,0,1-.19.16c0,.09.09.12.15.15l.12-.11A.59.59,0,0,1,14,4.27v0c0-.07,0-.07,0-.11l0,0s0,0,0-.07A.08.08,0,0,0,14,4l-.1,0a.1.1,0,0,1-.1,0c-.05-.07-.06-.07-.13,0l-.14.1L13.45,4l-.22.26,0,.08Zm.89,1.91h0c0-.08,0-.08.12,0l0,0c.09,0,.1,0,.12-.07A.07.07,0,0,1,14.52,6h.11A.07.07,0,0,0,14.7,6a.07.07,0,0,0-.06-.07l-.12,0c-.06,0-.07,0-.06-.09s0-.06,0-.08-.06,0-.09,0l-.13.06c-.06,0-.07,0-.1,0l0,0-.1.17c.09,0,.2,0,.28.09h-.11l-.26,0a.18.18,0,0,0-.12,0s0,0,.06,0H14a.13.13,0,0,1,.14.15v0ZM10,5.81c-.05-.17-.12-.26-.22-.27l0,0c0,.06-.06.07-.1,0l-.08-.06s-.07,0-.12,0V5.6c0,.09,0,.09-.09.09H9.24s-.06,0-.06,0a.09.09,0,0,0,0,.07l.07,0,.09,0s0,0,0,.08a.43.43,0,0,1,0,.07c.06.06.07.06.15,0a.27.27,0,0,1,.31,0h0l0-.15c-.11,0-.23,0-.34-.06A.8.8,0,0,1,10,5.81Zm2.58,2.45c.08.11.14.21.22.31a.22.22,0,0,0,.29,0s0,0,.08,0a.26.26,0,0,0,.21,0l-.05-.07-.16-.24a.22.22,0,0,0-.3-.06.06.06,0,0,1-.08,0A.25.25,0,0,0,12.54,8.26Zm-.48.38c-.08-.11-.14-.22-.22-.32a.22.22,0,0,0-.29-.05.06.06,0,0,1-.08,0,.33.33,0,0,0-.2,0c.08.12.15.23.23.33a.21.21,0,0,0,.28,0s.05,0,.07,0A.3.3,0,0,0,12.06,8.64Zm-1.55,0a.35.35,0,0,0,.28,0l-.18-.26a.3.3,0,0,0-.31-.14.2.2,0,0,0-.18.19.21.21,0,0,0,.16.22A.27.27,0,0,0,10.51,8.6Zm2-5a.12.12,0,0,1,.09.11.7.7,0,0,1,0,.14h.07c0-.06.06-.11.09-.16a.16.16,0,0,1,.15-.08l0,0c-.05,0-.06,0,0-.09a.27.27,0,0,0,.08-.07c.05-.05,0-.1,0-.13h0a.07.07,0,0,1-.05-.09.16.16,0,0,0,0-.07.11.11,0,0,0,0-.07s-.06,0-.08,0a.12.12,0,0,0,0,0c-.08.09-.08.09-.18,0h0v.08C12.59,3.29,12.62,3.44,12.5,3.64ZM13.73,6a.49.49,0,0,1-.39,0l-.19.06s0,0,0,0h.08a.5.5,0,0,1,.13,0s0,.06.05.09l.19,0c.06,0,.08.06.07.13s0,0,0,0l.15,0s.06,0,.07,0,.05-.07.1-.07.07,0,.08,0,0,0-.06-.06a.07.07,0,0,1,0-.09v0c0-.06,0-.08-.06-.07h-.1A.11.11,0,0,1,13.73,6Zm-2.29-2.4s.08,0,.11,0a.22.22,0,0,1,.18,0V3.36h0s0,0-.06,0,0,0,0-.07a.71.71,0,0,0,0-.14.06.06,0,0,0-.06-.06c-.08.07-.08.07-.15,0l0,0L11.28,3h0a0,0,0,0,0,0,.06,1,1,0,0,0,0,.14c0,.07,0,.09-.07.11s-.07,0,0,.09l0,0a.12.12,0,0,1,.17,0,.19.19,0,0,1,.05.1A1.55,1.55,0,0,1,11.44,3.63Zm-.56,1.66-.19,0c-.09,0-.18,0-.22-.09s-.12-.12-.16-.19-.06.09-.12.11h0s-.06,0-.07.06,0,.06,0,.08l.1.1h.16a.2.2,0,0,1,.21,0c.07-.08.12-.09.2,0l.06.08.08-.17Zm2.87.57A.29.29,0,0,0,14,5.71l.08-.14a.36.36,0,0,0-.38-.11A.44.44,0,0,0,13.75,5.86ZM13,4.66l.21-.06.22-.06.12-.14c0-.08-.08-.09-.15-.06l-.08,0c-.06,0-.08,0-.12,0l-.06-.08-.06,0c.05.1,0,.16-.08.21Zm-2.69.83a.25.25,0,0,0-.15,0,.2.2,0,0,1-.13.06s-.06,0,0,.06a1.18,1.18,0,0,0,.07.2.2.2,0,0,0,.13.11l.08-.13.08-.13A.17.17,0,0,1,10.32,5.49Zm2.91-.81a.3.3,0,0,0,.25.31s0,0,0-.08a1.32,1.32,0,0,0,.05-.26h-.12A.37.37,0,0,0,13.23,4.68ZM12.09,6.39a.77.77,0,0,0,0-.48l-.26,0A.87.87,0,0,0,12.09,6.39ZM10.36,4.77c0,.18,0,.29.16.33a.69.69,0,0,0,.19-.33A.6.6,0,0,0,10.36,4.77Zm.81-.63v.05a.12.12,0,0,1,0,.1.2.2,0,0,0,0,.22l.34-.18a.24.24,0,0,0-.13-.13Zm1.38.19a.43.43,0,0,0,0-.25s0,0-.08,0l-.12.06a.25.25,0,0,0-.12.13Zm-.09,1.93.06-.07s0-.06,0-.11a.17.17,0,0,1,.08-.21l.07-.06-.11,0A.74.74,0,0,0,12.46,6.26Zm-.31,1.92c0-.09,0-.12-.08-.12a.09.09,0,0,0-.11.09Zm.36-2.77-.13.06v.14C12.51,5.59,12.48,5.49,12.51,5.41ZM11.37,8.13c.15.07.2.06.21,0Z" style="fill:#08366a"/><path d="M15.69,12H8.29V9.14h7.4Zm-2.93-.18a.43.43,0,0,0,.29-.13.16.16,0,0,0,0-.27.42.42,0,0,0-.17-.1,1.89,1.89,0,0,0-.57-.13,3.06,3.06,0,0,0-.8,0,1.55,1.55,0,0,0-.47.12.53.53,0,0,0-.15.11.15.15,0,0,0,0,.24.53.53,0,0,0,.32.15l-.14-.08a.43.43,0,0,1-.12-.11.11.11,0,0,1,0-.17l.15-.07a1.56,1.56,0,0,1,.56-.12,3,3,0,0,1,1.07.08l.23.11a.1.1,0,0,1,0,.16.36.36,0,0,1-.1.11.7.7,0,0,1-.14.08h0Zm-.66-1.16h0s0,.05,0,.06a.34.34,0,0,0,.31,0,.14.14,0,0,0,.09-.11s0-.07-.06-.09,0,.12-.11.08,0-.07,0-.11,0-.07,0-.09a.13.13,0,0,1,.09,0s.06,0,.07.09a.14.14,0,0,1,0,.06h0l0-.16a.16.16,0,0,1,.1-.18h.06a.16.16,0,0,1,.06.15l-.06.11-.05.1.09-.07a.09.09,0,0,1,.13,0s0,.07,0,.11a.08.08,0,0,0,0,.11l-.06,0c-.05,0,0-.08,0-.12s-.1.06-.08.12a.21.21,0,0,0,.07.11.64.64,0,0,0,.18.06.18.18,0,0,0,.18-.09l.14-.2a1.15,1.15,0,0,0,.14-.32.43.43,0,0,0-.3-.53.62.62,0,0,0-.38,0l-.34.11a.29.29,0,0,1-.16,0V9.62s0-.06-.05-.06,0,0,0,.06v.62h-.31V9.61s0,0,0,0,0,0,0,0v.24l-.22,0-.32-.1a.54.54,0,0,0-.49.08.37.37,0,0,0-.16.31.5.5,0,0,0,.07.29c.07.13.15.25.23.38a.22.22,0,0,0,.13.08.38.38,0,0,0,.23-.06.41.41,0,0,0,.07-.11c0-.06,0-.11-.09-.11s0,.12-.08.12,0-.07,0-.11,0-.05,0-.08a.1.1,0,0,1,.08-.05s0,0,.07,0l.07,0a.36.36,0,0,1,0-.07.35.35,0,0,1-.05-.08.16.16,0,0,1,0-.18.06.06,0,0,1,.08,0,.16.16,0,0,1,.09.19.3.3,0,0,0,0,.1s0,0,0,0,0,0,0-.06l0-.05a.1.1,0,0,1,.12,0s0,0,0,.1a.08.08,0,0,0,0,.11c-.08,0-.08,0-.13-.09a.08.08,0,0,0-.05.07.15.15,0,0,0,.12.15.44.44,0,0,0,.25,0,.1.1,0,0,0,.07-.09l-.13,0a.89.89,0,0,1,0-.23l.15,0,0-.13h.27l0,.12.15,0a.89.89,0,0,1,0,.23Zm-.2.72c-.1,0-.27,0-.45.05a.9.9,0,0,0-.32.09c-.09.06-.1.15,0,.21l.21.08a3.18,3.18,0,0,0,1.23,0,1.25,1.25,0,0,0,.25-.09c.11,0,.1-.15,0-.21l-.17-.07A3.88,3.88,0,0,0,11.9,11.33Zm1.42-.63h0a2.07,2.07,0,0,0-.19.32A2.43,2.43,0,0,0,12,10.79a2.39,2.39,0,0,0-1.12.22,1.38,1.38,0,0,0-.2-.33.08.08,0,0,0,0,0,1.09,1.09,0,0,1,.12.36q0,.08.09,0a1.81,1.81,0,0,1,.76-.22,3.47,3.47,0,0,1,.85,0,1.55,1.55,0,0,1,.63.2c.06,0,.08,0,.1,0a2.83,2.83,0,0,1,.11-.31ZM11.94,9.44V9.5s0,.06.05.06,0,0,0-.06V9.44h.08s.05,0,0,0a0,0,0,0,0,0,0H12V9.26a.07.07,0,0,0,0,0l0,0a.22.22,0,0,0,0,.08h-.08a0,0,0,0,0,0,.08Zm0,.69a.08.08,0,0,0,.08.07.07.07,0,0,0,.08-.08A.09.09,0,0,0,12,10,.11.11,0,0,0,11.9,10.13Zm.16-.45A.08.08,0,0,0,12,9.6s-.07,0-.08.08a.09.09,0,0,0,.09.08A.08.08,0,0,0,12.06,9.68Zm.84-.2a.08.08,0,0,0-.08.08.09.09,0,0,0,.08.08A.11.11,0,0,0,13,9.55.08.08,0,0,0,12.9,9.48Zm-1.48.13s0-.07-.08-.08a.09.09,0,0,0-.08.08c0,.05,0,.09.08.08A.07.07,0,0,0,11.42,9.61Zm2.1.91a.08.08,0,0,0-.16,0s0,.08.08.08A.08.08,0,0,0,13.52,10.52Zm-.81-.91a.09.09,0,0,0-.08-.08.11.11,0,0,0-.08.09.07.07,0,0,0,.08.07A.07.07,0,0,0,12.71,9.61Zm-1.63-.13a.09.09,0,0,0-.09.07.11.11,0,0,0,.08.09.09.09,0,0,0,.08-.08A.07.07,0,0,0,11.08,9.48Zm-.29.19a.08.08,0,0,0,.09-.07.08.08,0,1,0-.16,0A.08.08,0,0,0,10.79,9.67Zm2.62,0c-.05,0-.08,0-.08.08a.08.08,0,1,0,.08-.08Zm-2.88.78a.08.08,0,0,0-.08.08.08.08,0,0,0,.16,0A.08.08,0,0,0,10.53,10.44Zm3-.1a.08.08,0,0,0,.08-.08.08.08,0,1,0-.16,0A.08.08,0,0,0,13.54,10.34Zm-.38-.67a.08.08,0,0,0,.09-.07.1.1,0,0,0-.07-.09.09.09,0,0,0-.09.08A.08.08,0,0,0,13.16,9.67Zm-2.67.07a.07.07,0,0,0,.08.08.08.08,0,0,0,.07-.08.08.08,0,0,0-.08-.08A.08.08,0,0,0,10.49,9.74Zm1.57.16A.09.09,0,0,0,12,9.82s-.08,0-.08.08A.09.09,0,0,0,12,10,.08.08,0,0,0,12.06,9.9Zm-.54-.2a.08.08,0,0,0,.16,0,.09.09,0,0,0-.08-.08A.08.08,0,0,0,11.52,9.7Zm-1,.56a.08.08,0,1,0-.16,0,.08.08,0,0,0,.08.08A.07.07,0,0,0,10.51,10.26Zm3-.2a.07.07,0,0,0,.07-.08.08.08,0,0,0-.07-.08.09.09,0,0,0-.09.09A.09.09,0,0,0,13.55,10.06Zm-3.12,0a.08.08,0,0,0,.08-.08.08.08,0,0,0-.16,0A.07.07,0,0,0,10.43,10.06ZM13,11.21a.07.07,0,0,0,.07.08.08.08,0,0,0,.09-.07.09.09,0,0,0-.08-.08A.08.08,0,0,0,13,11.21Zm-2,0a.08.08,0,0,0-.08-.07.09.09,0,0,0-.08.08.08.08,0,0,0,.08.07A.07.07,0,0,0,11,11.21ZM12.06,11a.08.08,0,0,0-.07-.08.08.08,0,1,0,0,.16A.08.08,0,0,0,12.06,11Zm-.55,0a.07.07,0,0,0-.08-.07.07.07,0,0,0-.07.08.08.08,0,1,0,.15,0Zm1-.07a.07.07,0,0,0-.08.07.08.08,0,0,0,.07.08.07.07,0,0,0,.08-.08A.07.07,0,0,0,12.54,11Zm-.17-1.19a.08.08,0,1,0,0-.16.08.08,0,1,0,0,.16Z" style="fill:#fbfcfc"/><path d="M12.75,16.68l-.14,0-.14,0a.47.47,0,0,1-.32-.41.35.35,0,0,1,.06-.22l.14-.18c0-.05.05-.11.08-.17a.07.07,0,0,0,0-.05s0,0,0,0,0,0,0,0,0,.1-.05.14l-.09.12,0,.05a.47.47,0,0,0,0,.57l0,.05a.87.87,0,0,1-.39-.16c0-.11,0-.22,0-.33s0,0,0,0l0,0a.05.05,0,0,0,0,0s0,0,0,.06,0,.17,0,.26a.16.16,0,0,1-.08.14l-.33.27a.2.2,0,0,1-.15.06H11v-.07c-.07,0-.08.09-.15.07s.06-.13.15-.13l.13,0a.19.19,0,0,0,.12-.23s0,0,0-.06a.47.47,0,0,0-.55-.35l-.28,0a.22.22,0,0,1-.11,0,.12.12,0,0,0,.08-.12.12.12,0,0,0-.16-.1c-.09,0-.1,0-.15-.07l0,0s0,0,0,0h0l-.05,0s0-.06,0-.09l.06-.06a1.07,1.07,0,0,1,.16-.14c.15-.09.31-.17.47-.25a.6.6,0,0,1,.27-.07,1.15,1.15,0,0,0,.39-.11,2,2,0,0,1,1.08-.23,1.26,1.26,0,0,1,1,.67,1,1,0,0,1,.1.7,1.43,1.43,0,0,1-.4.78,1.18,1.18,0,0,0-.24.31,2.91,2.91,0,0,1-.58.68.8.8,0,0,1-.62.22c-.09,0-.13,0-.12-.13a1.54,1.54,0,0,1,0-.17,1,1,0,0,1,.3-.38l.57-.43.1-.07A.26.26,0,0,0,12.75,16.68Zm-2.33-.91s0,0,0,0,0-.12.07-.19l0,0,.06,0v0a.42.42,0,0,0-.26.12.09.09,0,0,0,0,.11S10.35,15.78,10.42,15.77Zm2.11,1.67a1.46,1.46,0,0,0-.36,0s0,0-.06,0A.45.45,0,0,0,12.53,17.44Zm-.2.21a.83.83,0,0,0-.33,0l-.06,0A.41.41,0,0,0,12.33,17.65ZM13,15l-.05,0-.21-.09s-.05,0-.07,0,0,.05,0,.06l.13,0,.09,0Zm-1.25,0c0-.05,0-.05-.06,0l-.2.06s-.06,0,0,.07,0,0,.08,0l.19-.1Zm.64,2.18a.29.29,0,0,0,.35,0,.9.9,0,0,0-.28,0S12.39,17.23,12.36,17.24Zm-1.52-1.9a.07.07,0,0,0,0-.1s0-.05-.1-.06a.1.1,0,0,0-.09.06s0,0,0,0h.05c.06,0,.06,0,.08,0Zm.92-.1,0,0-.17,0a0,0,0,0,0,0,.06s0,0,.06,0l.17-.06Zm1.4,0,0,0s0,0,0,.05l.13.1h.05s0,0,0-.05a.52.52,0,0,0-.11-.1Zm-1.05,2.63a.34.34,0,0,0-.28,0A.24.24,0,0,0,12.11,17.85ZM13,15.23s0-.05,0-.06l-.15-.06s0,0-.06,0,0,0,0,0l.14.05Zm-1.31.22h-.06a0,0,0,0,0,0,.09l.14,0s0,0,0,0l0,0Zm1.62.08a.36.36,0,0,0-.14-.1l0,0a0,0,0,0,0,0,.05l.1.06S13.26,15.56,13.26,15.53Zm-.5-.24,0,0,0,0,.1,0h0a.06.06,0,0,0,0,0Zm-1.14.42h.06l0,0s0,0,0,0l-.08,0s-.06,0-.06,0,0,0,0,0Zm-1.24-.32s-.07,0-.07,0,0,.05,0,.05.07,0,.06-.06Zm2.47.12c-.08-.06-.11-.06-.14,0A.1.1,0,0,0,12.85,15.51Zm.57.16h0a.13.13,0,0,0,0,.06l.06,0h0S13.45,15.67,13.42,15.67Zm-.26,0s0-.06-.07-.08h0s0,0,0,0S13.12,15.69,13.16,15.68Z" style="fill:#fbfcfc"/><path d="M11.23,19.71a.8.8,0,0,0-.44-.39l-.52-.22A5.62,5.62,0,0,1,9,18.37a2.13,2.13,0,0,1-.56-.6.83.83,0,0,1-.12-.49.73.73,0,0,1,0-.25c.08-.19.18-.38.27-.59v0a1,1,0,0,0,.28.75,3.5,3.5,0,0,0,.78.65,8.46,8.46,0,0,0,.85.43,2.23,2.23,0,0,1,.45.25.69.69,0,0,1,.27.38s0,.08,0,.12v.61A.43.43,0,0,0,11.23,19.71Zm-1.15-1.45c-.06,0,0,0,0,.09a2.26,2.26,0,0,1-.11.22.24.24,0,0,1-.06.09.09.09,0,0,1-.13,0,.11.11,0,0,1,0-.14c0-.1.09-.19.13-.28s.06,0,.08,0l-.18-.1,0,.05c.05,0,0,.06,0,.1s-.07.15-.1.23a.18.18,0,0,0,0,.17.2.2,0,0,0,.34,0,1.24,1.24,0,0,0,.1-.2s0-.08.08-.07,0,0,0,0Zm-1-.06-.11-.1L9,17.94s.09,0,.07.12l0,0L9.19,18l0,0c-.06.05-.07,0-.1,0l.08-.16h0s.09.07.06.14,0,0,0,0l.06-.12-.27-.22s0,0,0,.07,0,0,0,0-.11.23-.16.33H8.81s0,0,0,0l.24.21.09-.12-.05,0Zm-.17-.69-.21.23h0l.06-.38.06,0s0,0,0,0l-.12-.18h0s0,0,0,0,0,.05,0,.07-.05.31-.08.46,0,.08,0,.11l.06-.05.22-.21s0,0,.08,0-.08-.11-.11-.16S8.86,17.48,8.88,17.51Zm1.84,1-.41-.19,0,0a.93.93,0,0,1,0,.1l0,0c.07-.08.07-.08.15,0l-.17.38c-.06,0-.06,0-.07,0l.19.09c.06-.05,0-.06,0-.09l.18-.38.08,0,0,.09.06,0ZM9.45,18a2.53,2.53,0,0,1-.16.33s0,.05,0,0l-.05,0,.31.19.09-.12,0,0h0c-.09.08-.1.08-.2,0L9.53,18l.06,0,0,0-.17-.12S9.42,18,9.45,18Z" style="fill:#f9fafb"/><path d="M15.39,16.46h0c.09.2.19.39.27.6a.85.85,0,0,1-.09.71,2,2,0,0,1-.46.53A5.21,5.21,0,0,1,14,19l-.67.28-.39.21a.47.47,0,0,0-.23.25s0-.06,0-.09c0-.19,0-.39,0-.59a.53.53,0,0,1,.17-.37,1.44,1.44,0,0,1,.4-.28l.65-.31a3.84,3.84,0,0,0,1.13-.83,1.12,1.12,0,0,0,.28-.54A1.77,1.77,0,0,0,15.39,16.46ZM14,18.18l-.27.14a.1.1,0,0,0-.06.08l0,.43a.11.11,0,0,1,0,.09s0,0,0,0l.17-.07c0-.06-.05,0-.08,0v-.18l.14-.07.07.16s-.08,0,0,.07l.33-.16s0-.07,0-.1,0,0,0,0l-.05,0c0,.09,0,.09-.06.13l-.08,0L14,18.57c.06,0,.1-.07.16,0l0,0-.07-.15s0,0,0,.05,0,0,0,.06l-.07,0-.09-.19.14-.06.06.06,0,0Zm1.16-.26a.34.34,0,0,0-.07-.22.2.2,0,0,0-.25-.06.31.31,0,0,0-.05.54l.09,0A.27.27,0,0,0,15.2,17.92Zm-1,.25s0,0,.1,0l.29.3c.07,0,.07,0,.07-.1l0-.42s0-.07,0-.09,0,0,0-.06l-.15.11c0,.07,0,0,.07,0l0,.39h0l-.24-.27s.07,0,0-.09l-.19.12Z" style="fill:#fafbfc"/><path d="M10.18,19.9a.84.84,0,0,0,.57.24h2.37a1.45,1.45,0,0,0,.35,0,.72.72,0,0,0,.34-.21V20c0,.22,0,.44,0,.66a.26.26,0,0,1-.16.25.82.82,0,0,1-.34.09L13,21H10.92a1.48,1.48,0,0,1-.47-.06,1,1,0,0,1-.18-.08.22.22,0,0,1-.1-.18v-.75S10.17,19.91,10.18,19.9Zm3.05.68h0a.16.16,0,0,0,.07-.16.15.15,0,0,0-.14-.1h-.24c0,.06,0,.05,0,.07v.4s-.06,0,0,.06h.19c0-.06,0,0,0-.06v-.14s.07,0,.09,0a.25.25,0,0,1,0,.07c0,.1,0,.1.15.1h0s0,0,0,0,0,0-.06-.06S13.26,20.63,13.23,20.58Zm-1.86,0c.08,0,.08,0,.11.06l0,.05c.05.12,0,.11.16.1h0s0,0,0,0-.05,0-.06-.06a1,1,0,0,1-.08-.14l0,0a.16.16,0,0,0,.07-.15c0-.07-.07-.09-.14-.1h-.22s0,0,0,0a.08.08,0,0,0,0,0h0v.41s-.07,0,0,.06a.85.85,0,0,0,.16,0l0,0,0,0h0Zm.7-.07,0,0a.15.15,0,0,0,.06-.14.12.12,0,0,0-.12-.08h-.22s0,0,0,0,0,0,0,0,0,0,0,0v.4s-.07,0-.05.07H12l.13,0a.14.14,0,0,0,.1-.13c0-.06,0-.1-.09-.13Zm.23,0v.05a.22.22,0,0,0,.19.2.24.24,0,0,0,.27-.1.3.3,0,0,0,0-.26.23.23,0,0,0-.22-.18A.27.27,0,0,0,12.3,20.58Zm-1.16.25s0,0,0,0-.05-.06-.07-.1-.09-.26-.14-.39h-.07l-.16.42s0,.06,0,.06,0,0,0,0,0,0,0,0h.13s0,0,0,0l0,0h0l0-.09H11l0,.09s-.07,0,0,.06Z" style="fill:#f9fafb"/><path d="M11.23,12.5v1.23a.58.58,0,0,1-.32,0,1.09,1.09,0,0,0-.23-.09.43.43,0,0,0-.38.07l0,0h0V12.54a.17.17,0,0,1,.12-.19.48.48,0,0,1,.42,0l.11.08a.28.28,0,0,0,.18.06Zm-.8.31v0h.06l.18,0,.16.07L11,13s0,0,.05,0,0,0-.05,0a1,1,0,0,1-.23-.07.59.59,0,0,0-.14-.06A.41.41,0,0,0,10.43,12.81Zm.63-.11-.06,0-.16,0-.17-.07a.38.38,0,0,0-.21,0s0,0,0,0a.49.49,0,0,1,.27.06l.2.07A.09.09,0,0,0,11.06,12.7Zm0,.54,0,0a.8.8,0,0,1-.26-.09.48.48,0,0,0-.31-.06l-.05,0,0,0a.6.6,0,0,1,.39.09l.17.05Zm-.62.09v0a.63.63,0,0,1,.38.09.48.48,0,0,0,.17.05h.05v0l0,0-.2-.06-.15-.06a.55.55,0,0,0-.18,0S10.47,13.33,10.45,13.33Z" style="fill:#f9fafb"/><path d="M12.74,13.73V12.5h.12a.25.25,0,0,0,.2-.06l.06,0a.44.44,0,0,1,.43-.06.19.19,0,0,1,.16.21v1.16l0,0a.41.41,0,0,0-.4-.06.35.35,0,0,0-.13.05A.73.73,0,0,1,12.74,13.73Zm.16-.26v0s0,0,0,0a.48.48,0,0,0,.17-.05.78.78,0,0,1,.36-.1s0,0,0,0a.37.37,0,0,0-.21,0A1.36,1.36,0,0,1,12.9,13.47Zm0-.25s0,0,.06,0l.2-.07a.6.6,0,0,1,.35-.07l0,0a.27.27,0,0,0-.15,0,.89.89,0,0,0-.26.09l-.2.06Zm0-.26v0H13l.22-.08a.47.47,0,0,1,.31-.06h0l0,0a.45.45,0,0,0-.23,0,1.55,1.55,0,0,1-.36.13Zm0-.25h0l.18-.05a.61.61,0,0,1,.35-.09s0,0,0,0a.47.47,0,0,0-.24,0,1.4,1.4,0,0,1-.36.13Z" style="fill:#fafafb"/><path d="M14.76,12.49v1.24a.7.7,0,0,1-.35-.05l-.19-.07a.42.42,0,0,0-.39.07l0,0V12.54a.18.18,0,0,1,.12-.19.51.51,0,0,1,.4,0h0A.48.48,0,0,0,14.76,12.49Zm-.18,1-.17,0a1.76,1.76,0,0,0-.2-.09l-.2,0-.06,0v0H14a.34.34,0,0,1,.2,0l.15.06.17.05S14.58,13.51,14.58,13.47Zm0-.75v0l-.05,0-.16,0-.17-.07a.41.41,0,0,0-.22,0l0,0,.06,0a.38.38,0,0,1,.25.05l.1,0A.42.42,0,0,0,14.58,12.72Zm-.64.1,0,0a.64.64,0,0,1,.36.08l.18.06h.06v0l-.05,0-.14,0-.17-.08a.46.46,0,0,0-.23,0Zm0,.25s0,0,0,0h0a.57.57,0,0,1,.36.08l.2.06h.05l0,0-.21-.06-.16-.07A.39.39,0,0,0,13.94,13.07Z" style="fill:#fafbfb"/><path d="M9.2,13.73V12.5h.14a.28.28,0,0,0,.18-.06l.08,0a.46.46,0,0,1,.41-.06.35.35,0,0,1,.13.08.11.11,0,0,1,0,.08v1.19h0l0,0a.4.4,0,0,0-.38-.06l-.18.06A.55.55,0,0,1,9.2,13.73Zm.18-.25s0,0,0,0l.23-.08a.51.51,0,0,1,.29-.06l.05,0-.06,0a.65.65,0,0,0-.19,0c-.13,0-.24.1-.37.12Zm0-.26v0h0l.21-.07A.58.58,0,0,1,10,13.1l0,0a.39.39,0,0,0-.26,0,1.55,1.55,0,0,1-.36.13Zm.63-.39h0l0,0a.49.49,0,0,0-.24,0A1.09,1.09,0,0,1,9.4,13l0,0h.09l.28-.11a.35.35,0,0,1,.22,0Zm0-.28a.36.36,0,0,0-.23,0,1.55,1.55,0,0,1-.36.13s0,0,0,0h.09a.67.67,0,0,0,.15-.06.68.68,0,0,1,.34-.08S10,12.56,10,12.55Z" style="fill:#fbfbfc"/><path d="M15,12.62h.08v1.43H14.05a.2.2,0,0,0-.13,0,.32.32,0,0,1-.35,0,.17.17,0,0,0-.12,0H12.37V12.62h.09v1.26s0,.06.06.06h.93a.13.13,0,0,1,.1,0,.33.33,0,0,0,.39,0,.14.14,0,0,1,.11,0h.89c.09,0,.09,0,.09-.1V12.69S15,12.65,15,12.62Z" style="fill:#eef1f4"/><path d="M11.5,12.63h.09v1.42H10.51a.19.19,0,0,0-.12,0,.3.3,0,0,1-.36,0,.15.15,0,0,0-.11,0H8.84V12.63h0s0,0,0,0v1.22s0,0,0,.06l0,0h.94A.23.23,0,0,1,10,14a.32.32,0,0,0,.39,0,.14.14,0,0,1,.11,0h.93s.05,0,.05,0V12.63Z" style="fill:#edf0f3"/><path d="M14.85,12.54l.1.06v1.26H14a.19.19,0,0,0-.12,0,.24.24,0,0,1-.3,0,.2.2,0,0,0-.13,0h-.92V12.69a.11.11,0,0,1,.09-.14v1.17c0,.1,0,.1.1.1a.78.78,0,0,0,.45-.09l.09,0a.36.36,0,0,1,.37.08.13.13,0,0,0,.2,0,.34.34,0,0,1,.38-.07l.07,0a.85.85,0,0,0,.44.09c.11,0,.11,0,.11-.1V12.54Z" style="fill:#f3f5f7"/><path d="M11.42,13.86h-.94a.15.15,0,0,0-.11,0,.23.23,0,0,1-.31,0,.2.2,0,0,0-.13,0H9v-.09c0-.36,0-.72,0-1.08a.13.13,0,0,1,.1-.14v1.22s0,.05.05.05a1,1,0,0,0,.45-.06.49.49,0,0,1,.17-.06.31.31,0,0,1,.32.07.14.14,0,0,0,.22,0,.37.37,0,0,1,.36-.07l.11,0a.66.66,0,0,0,.39.08c.14,0,.14,0,.14-.13V12.56c.09,0,.1,0,.1.12v1.18Z" style="fill:#f0f2f5"/><path d="M13.33,19.35l.36.3a.14.14,0,0,1,0,.23.56.56,0,0,1-.32.15,3.16,3.16,0,0,1-.32,0H13c0-.06-.11-.11-.15-.17a.2.2,0,0,1,0-.25l.15-.13.11-.06Z" style="fill:#fafbfc"/><path d="M10.65,19.35a1.79,1.79,0,0,1,.38.22.29.29,0,0,1,.12.23.17.17,0,0,1-.05.12s0,0,0,0a.22.22,0,0,1-.22.09,1.21,1.21,0,0,1-.37-.07.71.71,0,0,1-.18-.12c-.08-.07-.07-.14,0-.21Z" style="fill:#fbfbfc"/><path d="M9.55,16.78a.33.33,0,0,1-.39-.15c0-.07-.06-.07-.1,0l-.13.18c0,.06-.08.11-.12.18a.77.77,0,0,1-.11-.27.59.59,0,0,1,.08-.47.38.38,0,0,1,.27-.16s0,0,.07,0C9.26,16.33,9.41,16.55,9.55,16.78Z" style="fill:#fafbfc"/><path d="M14.43,16.78l.43-.67s0,0,.07,0a.41.41,0,0,1,.23.11.5.5,0,0,1,.14.37.72.72,0,0,1-.13.42L15,16.73a.61.61,0,0,0-.07-.1c0-.08-.07-.08-.11,0A.35.35,0,0,1,14.43,16.78Z" style="fill:#fbfbfc"/><path d="M9.55,16.88l-.37.53-.32-.34.25-.37A.44.44,0,0,0,9.55,16.88Z" style="fill:#fafbfb"/><path d="M14.8,17.41l-.36-.53a.44.44,0,0,0,.44-.18l.25.37Z" style="fill:#fafafb"/><path d="M12.68,16.75s0,.05-.07.05h-.4a.89.89,0,0,0-.32,0h-.06c0-.1.13-.11.2-.17a.25.25,0,0,0-.28.12l0,0a.3.3,0,0,1,.32-.18l.28,0h0Z" style="fill:#f6f7f9"/><path d="M11.17,16.41s-.07,0-.11,0l-.09,0c-.09,0-.12,0-.16.06s0,0,0,0l0,0s0,0,0-.06a.22.22,0,0,1,0-.08.17.17,0,0,0-.05.14s0,.05,0,.05a.2.2,0,0,1,.1-.3.42.42,0,0,1,.12,0,.25.25,0,0,0,.15-.08C11.13,16.22,11.14,16.32,11.17,16.41Z" style="fill:#f6f7f9"/><path d="M12.75,8.17a.42.42,0,0,0-.27,0h0l-.2,0a.11.11,0,0,0,0-.05A.18.18,0,0,0,11.92,8a.78.78,0,0,0-.1.15l-.15,0a.29.29,0,0,1,.05-.2.93.93,0,0,0,.13-.31.19.19,0,0,0,0-.08,1,1,0,0,0-.13.23,2,2,0,0,0-.13.25.37.37,0,0,0-.39.15l-.27,0,.4-.21a.72.72,0,0,0,.4-.59.19.19,0,0,0,0-.07l-.12-.2c-.07-.11-.13-.22-.19-.33a1,1,0,0,0-.39-.4l.08,0c.09,0,.1-.06.08-.15s.12,0,.11-.24a.11.11,0,0,1,.07.08.65.65,0,0,1,0,.19.83.83,0,0,0,.37.71c.08.06.12,0,.13-.06a.88.88,0,0,0,0-.23,1.86,1.86,0,0,0-.06-.34.47.47,0,0,0-.33-.34h0l.09-.11.23,0a.62.62,0,0,0,0,.19,1.72,1.72,0,0,0,.07.21l.18.3s0,0,.06,0l.06-.06a1.1,1.1,0,0,0,0-.67,0,0,0,0,1,0,0s.07,0,.08-.07a.52.52,0,0,1,0-.11l0,.06s0,.06.07,0l.07,0,.07,0v0a1,1,0,0,0-.17.54c0,.06,0,.12,0,.18s0,0,0,.06,0,0,.06,0l.16-.2,0,0h0v.06s0,0,.06,0l.15,0-.19.12a.81.81,0,0,0-.31.56,1.29,1.29,0,0,0,0,.48.61.61,0,0,0,.26.4,1.71,1.71,0,0,0,.27.14l.25.12.08.05a.24.24,0,0,1-.2,0,.42.42,0,0,0-.17,0,.33.33,0,0,0-.24-.22.49.49,0,0,1-.34-.45c0-.15,0-.29,0-.43a.44.44,0,0,0,0-.1s0,0,0,.06a1.57,1.57,0,0,0,0,.61.54.54,0,0,0,.32.37l.12.06s.09,0,.11.11Z" style="fill:#f9fafb"/><path d="M12.24,5.44l-.06.26a1.06,1.06,0,0,0-.4-.3v0l.05,0,.13.11a.48.48,0,0,1,.15.22.27.27,0,0,1-.23,0V5.68l-.14,0-.05,0s-.07,0-.09,0,0-.08,0-.11l0,0s0-.08,0-.09a.35.35,0,0,0-.11,0c-.06,0-.07-.06,0-.1a.09.09,0,0,0,0-.13.09.09,0,0,1,0-.11.09.09,0,0,1,.11,0s.06,0,.08,0l0-.07a.36.36,0,0,1,.14.16c.05.09.06.09.14,0l0,0a.25.25,0,0,1,.06.14l0,.06c0,.07,0,.07.08.07Z" style="fill:#f9fafb"/><path d="M12.92,4.56a.12.12,0,0,1,0,.14l0,0c-.08.07-.08.07,0,.15s-.17.1-.22.2l.08,0a.1.1,0,0,1,0,.09.9.9,0,0,1-.3.17,3.75,3.75,0,0,1,.17-.47c-.07,0-.1.08-.24.39a.51.51,0,0,1-.06-.2s0-.07.06-.08.06,0,0-.09,0-.09,0-.14a.14.14,0,0,1,0-.09s0-.05.07,0,.07,0,.08,0l0-.13s0-.06.09,0,.05,0,.07,0l.12-.08a.31.31,0,0,0,0,.11c0,.08,0,.08.09.1Z" style="fill:#fafafb"/><path d="M13.56,4.54c0-.08.07-.08.14,0s.09,0,.15,0a.35.35,0,0,1,.11-.1s.06,0,.09,0,0,.07.1,0a.28.28,0,0,1,.12,0s.06,0,.07,0a.06.06,0,0,1,0,.08s0,.05,0,.06l-.1.08-.08.08.08.06a.09.09,0,0,1,0,0,.12.12,0,0,1-.05.05H14s-.07,0-.08,0a.08.08,0,0,0,0,.08c0,.06,0,.09-.05.12a.52.52,0,0,1-.35,0c0-.09.06-.14.13-.2a1.73,1.73,0,0,0,.21-.17l.05-.07c-.1,0-.16.09-.26.13a.49.49,0,0,1,0-.12C13.68,4.59,13.67,4.56,13.56,4.54Z" style="fill:#f9fafb"/><path d="M10.77,4.64l0,0a2,2,0,0,0-.25,0,1.29,1.29,0,0,0-.24,0,.47.47,0,0,1-.14-.14c0-.06-.08-.11-.12-.18a.11.11,0,0,0,0,.11.7.7,0,0,0,.24.3l0,0v.1l-.09.13a.05.05,0,0,1,0,0s0,0,0-.07-.06-.09-.13-.07l-.1,0,0-.06,0-.06.09,0c.05,0,.05-.06,0-.09L9.8,4.58l-.1-.09.08,0c.07,0,.07-.05.05-.13a.38.38,0,0,0,0-.1.07.07,0,0,1,0-.07s0,0,.06,0,0,0,.07.06.06,0,.09,0l0,0,0,0s0,.08,0,.13,0,.06,0,.09a.06.06,0,0,0,.1,0l.06-.06s0,.07,0,.11V4.5c0,.08.05.1.12.08h0Z" style="fill:#f7f9fa"/><path d="M10.41,5.8v0c.09,0,.09-.07,0-.15s-.06-.09,0-.12.06,0,.12,0,.09.07.17,0a.18.18,0,0,1,.1.11s0,0,0,0,0,0,0,0l.05,0a.59.59,0,0,1,0-.08.39.39,0,0,1,.08.2v.05s0,0,.08,0l0,0a.56.56,0,0,1,.06.29l-.12,0-.27-.18-.1,0v0l.05.07.2.16a.41.41,0,0,1,.14.15c-.11,0-.2.07-.3,0a.19.19,0,0,0,0-.07c0-.06,0-.07-.05-.08a.32.32,0,0,1-.14,0s-.06,0-.1-.05.05,0,.06-.06,0-.06,0-.08l-.08,0S10.41,5.84,10.41,5.8Z" style="fill:#f8f9fa"/><path d="M11.41,4.11s-.06,0-.07-.05a.49.49,0,0,0-.14-.23l-.07-.05c0,.06,0,.09,0,.13l.07.12a1,1,0,0,0-.13,0s0,.07,0,.12l-.11,0L11,4.06A.05.05,0,0,0,11,4l-.11,0a.31.31,0,0,1-.1,0,.07.07,0,0,1,0-.12c.08,0,.08,0,0-.13a.93.93,0,0,0,0-.1s0-.09,0-.11a.11.11,0,0,1,.12,0l.07.06s0,0,0,0,.09.06.13,0v0s0-.05.06-.05.05,0,.05.07a.88.88,0,0,1,0,.16c0,.07,0,.08.1.05s.07,0,.07,0v.1c-.13,0-.15.09-.1.21a0,0,0,0,1,0,0Z" style="fill:#f7f9fa"/><path d="M12.5,3.74a.54.54,0,0,1-.08.21l0,0-.18.1a.15.15,0,0,1,0-.07c0-.11,0-.21,0-.32a.41.41,0,0,0,0-.11h0l-.11.5h-.06s0,0,0,0l0-.12a.19.19,0,0,0-.18-.23l.07,0c.08,0,.09,0,.06-.11L12,3.41a.28.28,0,0,0,0-.09h.1c.07,0,.08,0,.1-.07s0-.09.05-.12.07-.06.11,0a.2.2,0,0,1,0,.17.19.19,0,0,0,0,.08s.06,0,.08,0h0a.12.12,0,0,1,0,.14.41.41,0,0,1-.07.11c-.06.09-.05.11.06.12Z" style="fill:#f8f9fa"/><path d="M13,6.56,13,6.31a1.52,1.52,0,0,1,.38.2s0-.06,0-.08a.55.55,0,0,0-.19-.15l-.06,0a.39.39,0,0,1,.27,0s0,0,0,0a.07.07,0,0,0,.06.07l.19,0h0c0,.12,0,.12.09.16l.07,0c-.1.09,0,.14,0,.2s0,.06-.09,0a.1.1,0,0,0-.14,0s-.06,0-.09,0l-.09-.08a.05.05,0,0,0-.08,0s-.07,0-.11,0a1,1,0,0,1-.07-.15C13.13,6.53,13.11,6.52,13,6.56Z" style="fill:#f9fafb"/><path d="M12.58,5.52a.48.48,0,0,1,.12-.22s.08,0,.12,0l.1-.09.07,0,0,0a.06.06,0,0,0,.09,0l0,0c.07,0,.07,0,.13,0a.07.07,0,0,0,.06,0l.13,0a.09.09,0,0,1,0,0,.07.07,0,0,1,0,.06.1.1,0,0,1-.05,0c-.06,0-.08.05,0,.12v0c-.07.06-.17,0-.25,0l0,.11h-.1l-.09,0c-.1,0-.11,0-.15.09l-.23,0a.33.33,0,0,1,.16-.15l.24-.1a.18.18,0,0,0,.09-.06A1.65,1.65,0,0,0,12.58,5.52Z" style="fill:#f7f9fa"/><path d="M14.57,5.23a.21.21,0,0,1-.15,0l-.13,0c-.07,0-.09,0-.1.08s0,.07-.09.08l-.38,0s-.07,0-.11,0V5.26h.24a.11.11,0,0,0,.07,0A.14.14,0,0,0,14,5h.14c.07,0,.14,0,.16-.1s0-.12-.06-.17l.05,0a.07.07,0,0,1,.09.06v0c0,.08,0,.1.11.08l.06,0s.07,0,.09,0a.1.1,0,0,1,0,.12l-.06,0c-.07,0-.11.06,0,.15S14.56,5.22,14.57,5.23Z" style="fill:#f9fafb"/><path d="M11.39,5a.2.2,0,0,0,0,.23c-.12.14-.07.24.11.28V5.7a.15.15,0,0,1,0,.11l-.07.07a.09.09,0,0,1-.08-.09c0-.12,0-.23-.07-.35a.19.19,0,0,1,0-.08c-.06,0-.06.13,0,.37H11.1c0-.07-.07-.13-.1-.2a.06.06,0,0,1,0-.09l0-.07L11,5.28s-.05,0,0-.1S11,5.1,11,5a.15.15,0,0,1,0-.13s.06,0,.08,0a.27.27,0,0,1,.06.1s0,.06.09,0S11.35,5,11.39,5Z" style="fill:#f9fafb"/><path d="M10.85,4.67c0-.12,0-.12-.1-.13s-.15,0-.11-.16a.08.08,0,0,0,0-.08.47.47,0,0,1-.06-.09s0-.06,0-.08a.19.19,0,0,1,.09,0l.08,0,.13.07h0c0,.08.12.08.19.11a.34.34,0,0,0,0,.26.07.07,0,0,1,0,0c0,.07,0,.12.06.16a.44.44,0,0,0,.33.09l.06,0,.06.12,0,0a.29.29,0,0,1-.16,0,.32.32,0,0,0-.15,0c0-.09-.1-.19-.25-.13S10.94,4.68,10.85,4.67Z" style="fill:#f8f9fa"/><path d="M12.26,4.92a.21.21,0,0,0-.09.25c0,.06,0,.11.06.18h0l-.06-.17c0-.08-.09-.13-.19-.07h0a.61.61,0,0,1-.07-.1l-.12-.09-.07-.07s0-.08,0-.11a.09.09,0,0,0,.05-.1V4.53c0-.07.06-.1.12-.06a.71.71,0,0,1,.09.07l.07.08s.06,0,.09,0l.05-.06c.05,0,.07.06.06.1A.43.43,0,0,0,12.26,4.92Z" style="fill:#fafbfb"/><path d="M10.34,6.3s.08,0,.13,0l.1,0h0a0,0,0,0,0,0-.05s0,0,0-.09h.1a.11.11,0,0,0,.05.15.91.91,0,0,0-.37.27,3.66,3.66,0,0,1,.53-.21l-.11.26h0c-.06-.07-.11-.07-.15,0l-.05.12a.16.16,0,0,1-.15.11h0c0-.11-.06-.12-.17-.07l-.17.07a.08.08,0,0,1,0-.12l.07-.08s0-.06,0-.11a.09.09,0,0,1,.08-.14h.07l.06,0a.09.09,0,0,0,0-.07Z" style="fill:#f7f9fa"/><path d="M12.89,4.46c0-.09,0-.19-.14-.2A2,2,0,0,0,12.92,4a.6.6,0,0,0-.27.2L12.57,4h.07s.06,0,.08,0a.61.61,0,0,1,0-.12.11.11,0,0,1,.09-.08l0,.08a.05.05,0,0,0,.08,0l.12-.11a.1.1,0,0,1,.15,0s0,0,0,.1l-.08.1s0,.05,0,.09.05.08,0,.12l-.13.08c-.07,0-.07,0,0,.11S13,4.46,12.89,4.46Z" style="fill:#f9fafb"/><path d="M9.64,6.21V6.07s.08,0,.11,0,.07.07.12,0,0-.07,0-.12S10,5.9,10,6l.11.07a.19.19,0,0,0,.12.2l0,.11a.18.18,0,0,0-.16.11c-.05,0-.09,0-.12,0l-.11.06c-.05,0-.08,0-.1,0s0-.09-.13-.1H9.55a.07.07,0,0,1-.06-.07s0,0,0,0l.06,0Z" style="fill:#f9fafb"/><path d="M9.63,4.81a.14.14,0,0,1,.16.06l.06.07c0,.06.06.06.13,0l.08,0,0,.12,0,0a.16.16,0,0,0,0,.25l0,0,0,0a.1.1,0,0,1,0,0l-.08,0a.18.18,0,0,0-.07,0l-.05,0a.08.08,0,0,0,0,0,.09.09,0,0,0,0-.1.11.11,0,0,0-.12,0H9.71l-.06,0H9.58s0,0,0-.07h0s0-.07,0-.09l-.12,0s0-.05,0-.1a.08.08,0,0,1,.09-.07c.13,0,.13,0,.13-.11Z" style="fill:#f9fafb"/><path d="M12.12,4.16a.14.14,0,0,1-.08.12c-.06,0-.06.08-.08.13h0c-.1,0-.12-.09-.14-.18l0-.14a.21.21,0,0,0,0-.06.66.66,0,0,0,0,.34l0,0-.12-.13s0,0,0,0,0-.09,0-.13A.24.24,0,0,1,11.47,4h.06c.05,0,.07,0,.07-.09s0-.08,0-.12,0-.06,0-.07.06,0,.08,0a.73.73,0,0,1,.08.09c.06.06.07.06.14,0s0,0,0,0a.1.1,0,0,1,.05.14s0,.08,0,.12,0,.09.06.1h.1Z" style="fill:#f8f9fa"/><path d="M13.28,4.3h0l0-.08L13.45,4l.12.08.14-.1c.07,0,.08,0,.13,0a.1.1,0,0,0,.1,0L14,4a.08.08,0,0,1,.08,0s0,.05,0,.07l0,0c-.05,0-.05,0,0,.11v0a.59.59,0,0,0-.14.06l-.12.11c-.06,0-.14-.06-.15-.15a1,1,0,0,0,.19-.16h-.06l-.12,0a.35.35,0,0,1-.18.06S13.34,4.28,13.28,4.3Z" style="fill:#f9fafb"/><path d="M14.17,6.21l-.07,0v0A.13.13,0,0,0,14,6h-.11s0,0-.06,0a.18.18,0,0,1,.12,0l.26,0h.11c-.08-.07-.19-.06-.28-.09l.1-.17,0,0c0,.06,0,.07.1,0l.13-.06s.06,0,.09,0,0,0,0,.08,0,.07.06.09l.12,0A.07.07,0,0,1,14.7,6a.07.07,0,0,1-.07.09h-.11a.07.07,0,0,0-.07.06c0,.11,0,.11-.12.07l0,0c-.08,0-.08,0-.12,0Z" style="fill:#f7f9fa"/><path d="M10,5.81a.8.8,0,0,0-.46,0c.11,0,.23,0,.34.06l0,.15h0a.27.27,0,0,0-.31,0c-.08,0-.09,0-.15,0a.43.43,0,0,0,0-.07s0-.06,0-.08l-.09,0-.07,0a.09.09,0,0,1,0-.07s0,0,.06,0h.09c.09,0,.09,0,.09-.09V5.52c.05,0,.08,0,.12,0l.08.06s.07,0,.1,0l0,0C9.84,5.55,9.91,5.64,10,5.81Z" style="fill:#f7f9fa"/><path d="M12.54,8.26a.25.25,0,0,1,.21,0,.06.06,0,0,0,.08,0,.22.22,0,0,1,.3.06l.16.24.05.07a.26.26,0,0,1-.21,0s-.05,0-.08,0a.22.22,0,0,1-.29,0C12.68,8.47,12.62,8.37,12.54,8.26Z" style="fill:#fafafb"/><path d="M12.06,8.64a.3.3,0,0,1-.21,0s0,0-.07,0a.21.21,0,0,1-.28,0c-.08-.1-.15-.21-.23-.33a.33.33,0,0,1,.2,0,.06.06,0,0,0,.08,0,.22.22,0,0,1,.29.05C11.92,8.42,12,8.53,12.06,8.64Z" style="fill:#fafafb"/><path d="M10.51,8.6a.27.27,0,0,1-.23.05.21.21,0,0,1-.16-.22.2.2,0,0,1,.18-.19.3.3,0,0,1,.31.14l.18.26A.35.35,0,0,1,10.51,8.6Z" style="fill:#fafbfb"/><path d="M12.5,3.64c.12-.2.09-.35-.06-.38V3.18h0c.1.06.1.06.18,0a.12.12,0,0,1,0,0s.05,0,.08,0a.11.11,0,0,1,0,.07.16.16,0,0,1,0,.07.07.07,0,0,0,.05.09h0c.07,0,.08.08,0,.13a.27.27,0,0,1-.08.07c-.05,0,0,.06,0,.09l0,0a.16.16,0,0,0-.15.08s-.05.1-.09.16h-.07a.7.7,0,0,0,0-.14A.12.12,0,0,0,12.5,3.64Z" style="fill:#f7f9fa"/><path d="M13.73,6a.11.11,0,0,0,.12,0H14c.06,0,.07,0,.06.07v0a.07.07,0,0,0,0,.09s.07,0,.06.06,0,0-.08,0-.09,0-.1.07,0,0-.07,0l-.15,0s0,0,0,0,0-.11-.07-.13l-.19,0s0-.07-.05-.09a.5.5,0,0,0-.13,0H13.2s0,0,0,0L13.34,6A.49.49,0,0,0,13.73,6Z" style="fill:#f7f9fa"/><path d="M11.44,3.63a1.55,1.55,0,0,0,0-.15.19.19,0,0,0-.05-.1.12.12,0,0,0-.17,0l0,0c0-.06,0-.08,0-.09s.09,0,.07-.11a1,1,0,0,1,0-.14,0,0,0,0,1,0-.06h0l.08.06,0,0c.07.08.07.08.15,0a.06.06,0,0,1,.06.06.71.71,0,0,1,0,.14s0,.06,0,.07,0,0,.06,0h0v.25a.22.22,0,0,0-.18,0S11.48,3.63,11.44,3.63Z" style="fill:#f7f9fa"/><path d="M10.88,5.29l.06.07-.08.17-.06-.08c-.08-.08-.13-.07-.2,0a.2.2,0,0,0-.21,0h-.16l-.1-.1s-.05,0,0-.08,0,0,.07-.06h0c.06,0,.11,0,.12-.11s.12.11.16.19.13.1.22.09Z" style="fill:#f6f7f9"/><path d="M12.77,6.18A.27.27,0,0,1,12.92,6c.08,0,.09,0,.11-.11a.7.7,0,0,0-.4.2c0-.07,0-.09,0-.12s.09-.06.1-.11.16,0,.18-.08h.24a.12.12,0,0,0,.09-.12h.09a.3.3,0,0,1-.08.08c0,.06,0,.06,0,.13s0,.08,0,.1l-.14,0c-.08,0-.09,0,0,.12s0,0,0,0a.55.55,0,0,1-.31,0Z" style="fill:#f6f7f9"/><path d="M13.75,5.86a.44.44,0,0,1-.07-.4.36.36,0,0,1,.38.11L14,5.71A.29.29,0,0,1,13.75,5.86Z" style="fill:#fafbfb"/><path d="M13,4.66V4.52c.06,0,.13-.11.08-.21l.06,0,.06.08c0,.06.06.06.12,0l.08,0c.07,0,.11,0,.15.06l-.12.14-.22.06Z" style="fill:#f7f9fa"/><path d="M10.32,5.49a.17.17,0,0,0,0,.19l-.08.13-.08.13a.2.2,0,0,1-.13-.11,1.18,1.18,0,0,1-.07-.2s0-.06,0-.06a.2.2,0,0,0,.13-.06A.25.25,0,0,1,10.32,5.49Z" style="fill:#f8f9fa"/><path d="M13.23,4.68a.37.37,0,0,1,.23,0h.12a1.32,1.32,0,0,1-.05.26s0,0,0,.08A.3.3,0,0,1,13.23,4.68Z" style="fill:#f6f7f9"/><path d="M10.36,4.77a.6.6,0,0,1,.35,0,.69.69,0,0,1-.19.33C10.4,5.06,10.36,5,10.36,4.77Z" style="fill:#f8f9fa"/><path d="M11.17,4.14l.22.06a.24.24,0,0,1,.13.13l-.34.18a.2.2,0,0,1,0-.22.12.12,0,0,0,0-.1Z" style="fill:#f7f9fa"/><path d="M12.55,4.33l-.36-.09a.25.25,0,0,1,.12-.13l.12-.06s.06,0,.08,0A.43.43,0,0,1,12.55,4.33Z" style="fill:#f6f7f9"/><path d="M12.81,5.18s0,0,0-.07a.14.14,0,0,0,0-.06l.14-.11.05.14-.17.1Z" style="fill:#f0f2f5"/><path d="M12.15,8.18l-.19,0a.09.09,0,0,1,.11-.09S12.15,8.09,12.15,8.18Z" style="fill:#f0f2f5"/><path d="M12.51,5.41c0,.08,0,.18-.12.2V5.47Z" style="fill:#eef1f4"/><path d="M11.37,8.13l.21,0C11.57,8.19,11.52,8.2,11.37,8.13Z" style="fill:#edf0f3"/><path d="M11.42,4.11h0Z" style="fill:#f7f9fa"/><path d="M12.76,8.16v0h0Z" style="fill:#f9fafb"/><polygon points="12.77 6.18 12.76 6.19 12.76 6.19 12.77 6.18 12.77 6.18" style="fill:#f6f7f9"/><path d="M12.81,5.18h0Z" style="fill:#f0f2f5"/><path d="M11.44,6h0Z" style="fill:#f9fafb"/><path d="M12.1,10.61l.13,0a.89.89,0,0,0,0-.23l-.15,0,0-.12h-.27l0,.13-.15,0a.89.89,0,0,0,0,.23l.13,0a.1.1,0,0,1-.07.09.44.44,0,0,1-.25,0,.15.15,0,0,1-.12-.15.08.08,0,0,1,.05-.07c0,.12,0,.12.13.09a.08.08,0,0,1,0-.11c0-.05,0-.08,0-.1a.1.1,0,0,0-.12,0l0,.05s0,0,0,.06,0,0,0,0a.3.3,0,0,1,0-.1.16.16,0,0,0-.09-.19.06.06,0,0,0-.08,0,.16.16,0,0,0,0,.18.35.35,0,0,0,.05.08.36.36,0,0,0,0,.07l-.07,0s-.05,0-.07,0a.1.1,0,0,0-.08.05s0,.06,0,.08.07.06,0,.11.08,0,.08-.12.11,0,.09.11a.41.41,0,0,1-.07.11.38.38,0,0,1-.23.06.22.22,0,0,1-.13-.08c-.08-.13-.16-.25-.23-.38a.5.5,0,0,1-.07-.29.37.37,0,0,1,.16-.31.54.54,0,0,1,.49-.08l.32.1.22,0V9.61s0,0,0,0,0,0,0,0v.63h.31V9.62s0-.06,0-.06.05,0,.05.06v.22a.29.29,0,0,0,.16,0l.34-.11a.62.62,0,0,1,.38,0,.43.43,0,0,1,.3.53,1.15,1.15,0,0,1-.14.32l-.14.2a.18.18,0,0,1-.18.09.64.64,0,0,1-.18-.06.21.21,0,0,1-.07-.11c0-.06,0-.1.08-.12s0,.09,0,.12l.06,0a.08.08,0,0,1,0-.11s0-.08,0-.11a.09.09,0,0,0-.13,0l-.09.07.05-.1.06-.11a.16.16,0,0,0-.06-.15h-.06a.16.16,0,0,0-.1.18l0,.16h0a.14.14,0,0,0,0-.06s0-.08-.07-.09a.13.13,0,0,0-.09,0s0,.06,0,.09,0,.08,0,.11.08,0,.11-.08.07,0,.06.09a.14.14,0,0,1-.09.11.34.34,0,0,1-.31,0s0,0,0-.06Zm-1.3-.08c0-.17.13-.3.24-.29a.18.18,0,0,0,0,.07l-.07.11a.27.27,0,0,0,.07.32h0a.58.58,0,0,0,0-.14.16.16,0,0,1,.06-.23l0,0a.25.25,0,0,1,.09-.25.09.09,0,0,1,.12,0,.31.31,0,0,1,.18.19l.16.05,0,0a.65.65,0,0,0-.22-.18.16.16,0,0,1,.15,0l.12.08c0-.11,0-.14-.1-.18a.5.5,0,0,0-.38,0,.6.6,0,0,1-.15.09s-.12,0-.17,0A.25.25,0,0,0,10.8,10.53Zm2.37,0a.25.25,0,0,0-.14-.39.25.25,0,0,0-.12,0,.13.13,0,0,1-.1,0,.48.48,0,0,0-.49-.05c-.09,0-.1.07-.08.16.17-.11.19-.11.26-.08a.55.55,0,0,0-.22.18l0,0,.16,0a.29.29,0,0,1,.12-.16c.11-.06.16,0,.24.05a.34.34,0,0,1,0,.2l.07,0a.14.14,0,0,1,0,.19c0,.05,0,.11-.06.17a.25.25,0,0,0,.14-.3.64.64,0,0,0-.08-.14l-.06-.09A.29.29,0,0,1,13.17,10.53ZM11.43,9.9A.82.82,0,0,0,11,9.78a.52.52,0,0,0-.27.1.32.32,0,0,0-.05.4.32.32,0,0,1,.25-.23l.12,0,.06,0A.59.59,0,0,1,11.43,9.9Zm1.11,0a.77.77,0,0,1,.3.11.13.13,0,0,0,.1,0,.35.35,0,0,1,.35.24v0l0-.1a.3.3,0,0,0-.14-.34A.36.36,0,0,0,13,9.78a.71.71,0,0,0-.29.05Z" style="fill:#09366a"/><path d="M11.9,11.33a3.88,3.88,0,0,1,.74.07l.17.07c.11.06.12.16,0,.21a1.25,1.25,0,0,1-.25.09,3.18,3.18,0,0,1-1.23,0l-.21-.08c-.1-.06-.09-.15,0-.21a.9.9,0,0,1,.32-.09C11.63,11.35,11.8,11.34,11.9,11.33Zm-.75.24v0l.09.05.25.06a3.54,3.54,0,0,0,.73,0,1.85,1.85,0,0,0,.46-.08l.15-.07-.09-.05-.24-.06a3,3,0,0,0-.84,0,1.27,1.27,0,0,0-.43.09Z" style="fill:#0b386b"/><path d="M13.32,10.7v.05a2.83,2.83,0,0,0-.11.31c0,.07,0,.09-.1,0a1.55,1.55,0,0,0-.63-.2,3.47,3.47,0,0,0-.85,0,1.81,1.81,0,0,0-.76.22s-.08,0-.09,0a1.09,1.09,0,0,0-.12-.36.08.08,0,0,1,0,0,1.38,1.38,0,0,1,.2.33A2.39,2.39,0,0,1,12,10.79a2.43,2.43,0,0,1,1.13.22,2.07,2.07,0,0,1,.19-.32Z" style="fill:#0c396c"/><path d="M12.77,11.77a.7.7,0,0,0,.14-.08.36.36,0,0,0,.1-.11.1.1,0,0,0,0-.16l-.23-.11a3,3,0,0,0-1.07-.08,1.56,1.56,0,0,0-.56.12l-.15.07a.11.11,0,0,0,0,.17.43.43,0,0,0,.12.11l.14.08a.53.53,0,0,1-.32-.15.15.15,0,0,1,0-.24.53.53,0,0,1,.15-.11,1.55,1.55,0,0,1,.47-.12,3.06,3.06,0,0,1,.8,0,1.89,1.89,0,0,1,.57.13.42.42,0,0,1,.17.1.16.16,0,0,1,0,.27.43.43,0,0,1-.29.13Z" style="fill:#0d396c"/><path d="M11.94,9.44h-.08a0,0,0,0,1,0-.08h.08a.22.22,0,0,1,0-.08l0,0a.07.07,0,0,1,0,0v.08h.08a0,0,0,0,1,0,0s0,0,0,0H12V9.5s0,.06,0,.06-.05,0-.05-.06Z" style="fill:#09366a"/><path d="M11.9,10.13A.11.11,0,0,1,12,10a.09.09,0,0,1,.08.08.07.07,0,0,1-.08.08A.08.08,0,0,1,11.9,10.13Z" style="fill:#0f3b6e"/><path d="M12.06,9.68a.08.08,0,0,1-.07.08.09.09,0,0,1-.09-.08s0-.08.08-.08A.08.08,0,0,1,12.06,9.68Z" style="fill:#0d396c"/><path d="M12.9,9.48a.08.08,0,0,1,.08.07.11.11,0,0,1-.08.09.09.09,0,0,1-.08-.08A.08.08,0,0,1,12.9,9.48Z" style="fill:#0d396c"/><path d="M11.42,9.61a.07.07,0,0,1-.08.08s-.08,0-.08-.08a.09.09,0,0,1,.08-.08S11.42,9.57,11.42,9.61Z" style="fill:#0b386b"/><path d="M13.52,10.52a.08.08,0,0,1-.08.08s-.07,0-.08-.08a.08.08,0,0,1,.16,0Z" style="fill:#0c396c"/><path d="M12.71,9.61a.07.07,0,0,1-.08.08.07.07,0,0,1-.08-.07.11.11,0,0,1,.08-.09A.09.09,0,0,1,12.71,9.61Z" style="fill:#0b386b"/><path d="M11.08,9.48a.07.07,0,0,1,.07.08.09.09,0,0,1-.08.08A.11.11,0,0,1,11,9.55.09.09,0,0,1,11.08,9.48Z" style="fill:#0c396c"/><path d="M10.79,9.67a.08.08,0,0,1-.07-.08.08.08,0,1,1,.16,0A.08.08,0,0,1,10.79,9.67Z" style="fill:#0c396c"/><path d="M13.41,9.66a.08.08,0,1,1-.08.08S13.36,9.67,13.41,9.66Z" style="fill:#0c396c"/><path d="M10.53,10.44a.08.08,0,0,1,.08.08.08.08,0,0,1-.16,0A.08.08,0,0,1,10.53,10.44Z" style="fill:#0d396c"/><path d="M13.54,10.34a.08.08,0,0,1-.08-.08.08.08,0,1,1,.16,0A.08.08,0,0,1,13.54,10.34Z" style="fill:#0b386b"/><path d="M13.16,9.67a.08.08,0,0,1-.07-.08.09.09,0,0,1,.09-.08.1.1,0,0,1,.07.09A.08.08,0,0,1,13.16,9.67Z" style="fill:#09366a"/><path d="M10.49,9.74a.08.08,0,0,1,.07-.08.08.08,0,0,1,.08.08.08.08,0,0,1-.07.08A.07.07,0,0,1,10.49,9.74Z" style="fill:#0c396c"/><path d="M12.06,9.9A.08.08,0,0,1,12,10a.09.09,0,0,1-.09-.08s0-.07.08-.08A.09.09,0,0,1,12.06,9.9Z" style="fill:#09366a"/><path d="M11.52,9.7a.08.08,0,0,1,.08-.08.09.09,0,0,1,.08.08.08.08,0,0,1-.16,0Z" style="fill:#0b386b"/><path d="M10.51,10.26a.07.07,0,0,1-.08.08.08.08,0,0,1-.08-.08.08.08,0,1,1,.16,0Z" style="fill:#0b386b"/><path d="M13.55,10.06a.09.09,0,0,1-.09-.07.09.09,0,0,1,.09-.09.08.08,0,0,1,.07.08A.07.07,0,0,1,13.55,10.06Z" style="fill:#0d396c"/><path d="M10.43,10.06a.07.07,0,0,1-.08-.08.08.08,0,0,1,.16,0A.08.08,0,0,1,10.43,10.06Z" style="fill:#0d396c"/><path d="M13,11.21a.08.08,0,0,1,.08-.07.09.09,0,0,1,.08.08.08.08,0,0,1-.09.07A.07.07,0,0,1,13,11.21Z" style="fill:#0d396c"/><path d="M11,11.21a.07.07,0,0,1-.08.08.08.08,0,0,1-.08-.07.09.09,0,0,1,.08-.08A.08.08,0,0,1,11,11.21Z" style="fill:#0d396c"/><path d="M12.06,11a.08.08,0,0,1-.07.08.08.08,0,1,1,0-.16A.08.08,0,0,1,12.06,11Z" style="fill:#09366a"/><path d="M11.51,11a.08.08,0,1,1-.15,0,.07.07,0,0,1,.07-.08A.07.07,0,0,1,11.51,11Z" style="fill:#0b386b"/><path d="M12.54,11a.07.07,0,0,1,.07.07.07.07,0,0,1-.08.08.08.08,0,0,1-.07-.08A.07.07,0,0,1,12.54,11Z" style="fill:#0c396c"/><path d="M12.37,9.78a.08.08,0,1,1,0-.16.08.08,0,1,1,0,.16Z" style="fill:#09366a"/><polygon points="12.1 10.62 12.09 10.61 12.09 10.6 12.1 10.61 12.1 10.62" style="fill:#09366a"/><polygon points="12.77 11.77 12.76 11.78 12.76 11.78 12.77 11.77 12.77 11.77" style="fill:#0d396c"/><path d="M10.42,15.77c-.07,0-.09,0-.11-.08a.09.09,0,0,1,0-.11.42.42,0,0,1,.26-.12v0l-.06,0,0,0c-.1.07-.1.07-.07.19S10.42,15.76,10.42,15.77Z" style="fill:#0f3b6e"/><path d="M12.53,17.44a.45.45,0,0,1-.42,0s0,0,.06,0A1.46,1.46,0,0,1,12.53,17.44Z" style="fill:#0d396c"/><path d="M12.33,17.65a.41.41,0,0,1-.39,0l.06,0A.83.83,0,0,1,12.33,17.65Z" style="fill:#113d6f"/><path d="M13,15l-.07,0-.09,0-.13,0s0,0,0-.06,0,0,.07,0l.21.09Z" style="fill:#113d6f"/><path d="M11.72,15.06h0l-.19.1s-.07,0-.08,0,0-.06,0-.07l.2-.06S11.71,15,11.72,15.06Z" style="fill:#0b386b"/><path d="M12.36,17.24s.05,0,.07,0a.9.9,0,0,1,.28,0A.29.29,0,0,1,12.36,17.24Z" style="fill:#184273"/><path d="M10.84,15.34l0,0c0-.06,0-.06-.08,0h-.05s0,0,0,0a.1.1,0,0,1,.09-.06c.05,0,.09,0,.1.06A.07.07,0,0,1,10.84,15.34Z" style="fill:#0c396c"/><path d="M11.76,15.24l0,0-.17.06s-.05,0-.06,0a0,0,0,0,1,0-.06l.17,0Z" style="fill:#113d6f"/><path d="M13.16,15.22l0,0a.52.52,0,0,1,.11.1s0,0,0,.05h-.05l-.13-.1s0,0,0-.05Z" style="fill:#0d396c"/><path d="M12.11,17.85a.24.24,0,0,1-.28,0A.34.34,0,0,1,12.11,17.85Z" style="fill:#184273"/><path d="M13,15.23h-.07l-.14-.05s-.05,0,0,0,0,0,.06,0l.15.06S12.93,15.2,13,15.23Z" style="fill:#113d6f"/><path d="M11.64,15.45h.08l0,0s0,0,0,0l-.14,0a0,0,0,0,1,0-.09h.06Z" style="fill:#08366a"/><path d="M13.26,15.53s0,.05,0,0l-.1-.06a0,0,0,0,1,0-.05l0,0A.36.36,0,0,1,13.26,15.53Z" style="fill:#113d6f"/><path d="M12.76,15.29l.12.05a.06.06,0,0,1,0,0h0l-.1,0,0,0Z" style="fill:#113d6f"/><path d="M11.62,15.71h0s-.06,0,0,0,0,0,.06,0l.08,0s0,0,0,0l0,0Z" style="fill:#113d6f"/><path d="M10.38,15.39l0,0s0,.06-.06.06,0,0,0-.05S10.34,15.4,10.38,15.39Z" style="fill:#113d6f"/><path d="M12.85,15.51a.1.1,0,0,1-.14,0S12.77,15.45,12.85,15.51Z" style="fill:#1d4676"/><path d="M13.42,15.67s.07.06.07.09h0l-.06,0a.13.13,0,0,1,0-.06Z" style="fill:#184273"/><path d="M13.16,15.68s-.1,0-.11,0,0,0,0,0h0S13.16,15.64,13.16,15.68Z" style="fill:#0b386b"/><path d="M10.08,18.26l.17.08s0,0,0,0-.06,0-.08.07a1.24,1.24,0,0,1-.1.2.2.2,0,0,1-.34,0,.18.18,0,0,1,0-.17c0-.08.07-.16.1-.23s.05-.07,0-.1l0-.05.18.1s0,0-.08,0-.09.18-.13.28a.11.11,0,0,0,0,.14.09.09,0,0,0,.13,0,.24.24,0,0,0,.06-.09,2.26,2.26,0,0,0,.11-.22S10,18.31,10.08,18.26Z" style="fill:#0d396c"/><path d="M9.05,18.2l.06-.07.05,0-.09.12-.24-.21s0,0,0,0h.07c0-.1.11-.21.16-.33s0,0,0,0,0,0,0-.07l.27.22-.06.12s-.06,0,0,0,0-.1-.06-.14h0l-.08.16s0,.08.1,0l0,0-.07.13,0,0c0-.07,0-.08-.07-.12l-.08.16Z" style="fill:#0f3b6e"/><path d="M8.88,17.51s-.07-.05,0-.09.11.08.11.16-.06,0-.08,0l-.22.21-.06.05s0-.06,0-.11,0-.31.08-.46,0,0,0-.07,0,0,0,0h0l.12.18s0,0,0,0l-.06,0-.06.38h0Z" style="fill:#0d396c"/><path d="M10.72,18.56l-.07.13-.06,0,0-.09-.08,0-.18.38s.09,0,0,.09l-.19-.09s0,0,.07,0l.17-.38c-.08-.05-.08-.05-.15,0l0,0a.93.93,0,0,0,0-.1l0,0Z" style="fill:#0d396c"/><path d="M9.45,18s0,0,0-.08l.17.12,0,0-.06,0-.18.37c.1.09.11.09.2,0h0l0,0-.09.12-.31-.19.05,0s0,0,0,0A2.53,2.53,0,0,0,9.45,18Z" style="fill:#0c396c"/><path d="M14,18.18l.07.12,0,0L14,18.27l-.14.06.09.19.07,0s.05,0,0-.06,0,0,0-.05l.07.15,0,0c-.06,0-.1,0-.16,0l.07.16.08,0c.08,0,.08,0,.06-.13l.05,0s0,0,0,0,0,.06,0,.1l-.33.16c-.06,0,0-.05,0-.07l-.07-.16-.14.07v.18s.07,0,.08,0l-.17.07s0,0,0,0a.11.11,0,0,0,0-.09l0-.43a.1.1,0,0,1,.06-.08Zm-.26.21h0l0,.22.11-.06Z" style="fill:#0f3b6e"/><path d="M15.2,17.92a.27.27,0,0,1-.28.29l-.09,0a.31.31,0,0,1,.05-.54.2.2,0,0,1,.25.06A.34.34,0,0,1,15.2,17.92Zm-.09.06a.34.34,0,0,0-.09-.24.1.1,0,0,0-.12,0,.11.11,0,0,0-.1.11.3.3,0,0,0,.1.29.12.12,0,0,0,.2-.05A.17.17,0,0,0,15.11,18Z" style="fill:#0d396c"/><path d="M14.15,18.17v0l.19-.12c0,.05,0,.06,0,.09l.24.27h0l0-.39s-.07,0-.07,0l.15-.11s0,0,0,.06,0,.06,0,.09l0,.42c0,.07,0,.07-.07.1l-.29-.3C14.2,18.17,14.2,18.17,14.15,18.17Z" style="fill:#0b386b"/><path d="M13.23,20.58c0,.05,0,.1.08.14s0,.06.06.06,0,0,0,0h0c-.11,0-.11,0-.15-.1a.25.25,0,0,0,0-.07s-.05-.06-.09,0v.14s.07,0,0,.06h-.19s0,0,0-.06v-.4s-.07,0,0-.07h.24a.15.15,0,0,1,.14.1.16.16,0,0,1-.07.16Zm-.15,0c.06,0,.1,0,.13,0a.11.11,0,0,0,0-.12.09.09,0,0,0-.11,0Z" style="fill:#184273"/><path d="M11.37,20.62v.15h0l0,0,0,0a.85.85,0,0,1-.16,0s0,0,0-.06v-.41h0a.08.08,0,0,1,0,0s0,0,0,0h.22c.07,0,.12,0,.14.1a.16.16,0,0,1-.07.15l0,0a1,1,0,0,0,.08.14s0,.06.06.06,0,0,0,0h0c-.12,0-.11,0-.16-.1l0-.05C11.45,20.62,11.45,20.62,11.37,20.62Zm0-.06c.09,0,.14,0,.14-.1s0-.11-.14-.1Z" style="fill:#0f3b6e"/><path d="M12.07,20.55h0c.07,0,.1.07.09.13a.14.14,0,0,1-.1.13l-.13,0h-.18c0-.06,0-.06.05-.07v-.4s0,0,0,0,0,0,0,0,0,0,0,0H12a.12.12,0,0,1,.12.08.15.15,0,0,1-.06.14Zm-.15.22a.12.12,0,0,0,.14,0,.08.08,0,0,0,0-.1.18.18,0,0,0-.16-.05Zm0-.24a.1.1,0,0,0,.14-.09c0-.07,0-.09-.14-.08Z" style="fill:#0c396c"/><path d="M12.3,20.58a.27.27,0,0,1,.28-.29.23.23,0,0,1,.22.18.3.3,0,0,1,0,.26.24.24,0,0,1-.27.1.22.22,0,0,1-.19-.2Zm.42,0c0-.05,0-.11-.05-.15a.12.12,0,0,0-.22,0,.29.29,0,0,0,0,.31.12.12,0,0,0,.22,0A.67.67,0,0,0,12.72,20.57Z" style="fill:#0c396c"/><path d="M11.14,20.83H11s0,0,0-.06l0-.09h-.18l0,.09h0l0,0s0,0,0,0h-.13s0,0,0,0,0,0,0,0,0,0,0-.06l.16-.42h.07c.05.13.1.26.14.39s0,.09.07.1S11.14,20.81,11.14,20.83Zm-.27-.42-.07.22h.14Z" style="fill:#0f3b6e"/><path d="M10.43,12.81a.41.41,0,0,1,.22,0,.59.59,0,0,1,.14.06,1,1,0,0,0,.23.07s0,0,.05,0,0,0-.05,0l-.19-.05-.16-.07-.18,0h-.06Z" style="fill:#1d4676"/><path d="M11.06,12.7a.09.09,0,0,1-.1,0l-.2-.07a.49.49,0,0,0-.27-.06s0,0,0,0a.38.38,0,0,1,.21,0l.17.07.16,0Z" style="fill:#1d4676"/><path d="M11.07,13.24H11l-.17-.05a.6.6,0,0,0-.39-.09l0,0,.05,0a.48.48,0,0,1,.31.06.8.8,0,0,0,.26.09Z" style="fill:#184273"/><path d="M10.45,13.33s0,0,0,0a.55.55,0,0,1,.18,0l.15.06.2.06,0,0v0H11a.48.48,0,0,1-.17-.05.63.63,0,0,0-.38-.09Z" style="fill:#1d4676"/><path d="M12.9,13.47a1.36,1.36,0,0,0,.4-.14.37.37,0,0,1,.21,0s0,0,0,0a.78.78,0,0,0-.36.1.48.48,0,0,1-.17.05s0,0,0,0Z" style="fill:#1d4676"/><path d="M12.9,13.22l0,0,.2-.06a.89.89,0,0,1,.26-.09.27.27,0,0,1,.15,0l0,0a.6.6,0,0,0-.35.07l-.2.07S12.92,13.26,12.9,13.22Z" style="fill:#184273"/><path d="M12.9,13h0a1.55,1.55,0,0,0,.36-.13.45.45,0,0,1,.23,0l0,0h0a.47.47,0,0,0-.31.06L13,13h-.07Z" style="fill:#184273"/><path d="M12.9,12.71v0a1.4,1.4,0,0,0,.36-.13.47.47,0,0,1,.24,0s0,0,0,0a.61.61,0,0,0-.35.09l-.18.05Z" style="fill:#1d4676"/><path d="M14.58,13.47s0,0,0,0l-.17-.05-.15-.06a.34.34,0,0,0-.2,0H14v0l.06,0,.2,0a1.76,1.76,0,0,1,.2.09Z" style="fill:#1d4676"/><path d="M14.58,12.72a.42.42,0,0,1-.22-.05l-.1,0a.38.38,0,0,0-.25-.05l-.06,0,0,0a.41.41,0,0,1,.22,0l.17.07.16,0,.05,0Z" style="fill:#1d4676"/><path d="M13.94,12.82l.05,0a.46.46,0,0,1,.23,0l.17.08.14,0,.05,0v0h-.06l-.18-.06a.64.64,0,0,0-.36-.08Z" style="fill:#184273"/><path d="M13.94,13.07a.39.39,0,0,1,.24,0l.16.07.21.06,0,0h-.05l-.2-.06A.57.57,0,0,0,14,13.1h0S14,13.09,13.94,13.07Z" style="fill:#184273"/><path d="M9.38,13.48h0c.13,0,.24-.09.37-.12a.65.65,0,0,1,.19,0l.06,0-.05,0a.51.51,0,0,0-.29.06l-.23.08S9.39,13.51,9.38,13.48Z" style="fill:#1d4676"/><path d="M9.38,13.22h0a1.55,1.55,0,0,0,.36-.13.39.39,0,0,1,.26,0l0,0a.58.58,0,0,0-.34.07l-.21.07h0Z" style="fill:#113d6f"/><path d="M10,12.83h0a.35.35,0,0,0-.22,0L9.46,13H9.37l0,0a1.09,1.09,0,0,0,.34-.13.49.49,0,0,1,.24,0l0,0Z" style="fill:#184273"/><path d="M10,12.55s0,0,0,0a.68.68,0,0,0-.34.08.67.67,0,0,1-.15.06H9.37s0,0,0,0a1.55,1.55,0,0,0,.36-.13A.36.36,0,0,1,10,12.55Z" style="fill:#1d4676"/><path d="M10.8,10.53a.25.25,0,0,1,.14-.39c.05,0,.12,0,.17,0a.6.6,0,0,0,.15-.09.5.5,0,0,1,.38,0c.09,0,.11.07.1.18l-.12-.08a.16.16,0,0,0-.15,0,.65.65,0,0,1,.22.18l0,0-.16-.05a.31.31,0,0,0-.18-.19.09.09,0,0,0-.12,0,.25.25,0,0,0-.09.25l0,0a.16.16,0,0,0-.06.23.58.58,0,0,1,0,.14h0a.27.27,0,0,1-.07-.32l.07-.11a.18.18,0,0,1,0-.07C10.93,10.23,10.82,10.36,10.8,10.53Z" style="fill:#f2f4f7"/><path d="M13.17,10.53a.29.29,0,0,0-.24-.3l.06.09a.64.64,0,0,1,.08.14.25.25,0,0,1-.14.3c0-.06,0-.12.06-.17a.14.14,0,0,0,0-.19l-.07,0a.34.34,0,0,0,0-.2c-.08-.1-.13-.11-.24-.05a.29.29,0,0,0-.12.16l-.16,0,0,0a.55.55,0,0,1,.22-.18c-.07,0-.09,0-.26.08,0-.09,0-.12.08-.16a.48.48,0,0,1,.49.05.13.13,0,0,0,.1,0,.25.25,0,0,1,.12,0A.25.25,0,0,1,13.17,10.53Z" style="fill:#f2f4f7"/><path d="M11.43,9.9a.59.59,0,0,0-.32.11l-.06,0-.12,0a.32.32,0,0,0-.25.23.32.32,0,0,1,.05-.4.52.52,0,0,1,.27-.1A.82.82,0,0,1,11.43,9.9Z" style="fill:#f7f9fa"/><path d="M12.54,9.88l.14-.05A.71.71,0,0,1,13,9.78a.36.36,0,0,1,.22.07.3.3,0,0,1,.14.34l0,.1v0a.35.35,0,0,0-.35-.24.13.13,0,0,1-.1,0A.77.77,0,0,0,12.54,9.88Z" style="fill:#f8f9fa"/><path d="M11.15,11.57l.08,0a1.27,1.27,0,0,1,.43-.09,3,3,0,0,1,.84,0l.24.06.09.05-.15.07a1.85,1.85,0,0,1-.46.08,3.54,3.54,0,0,1-.73,0l-.25-.06-.09-.05Z" style="fill:#fafafb"/><path d="M13.78,18.39l.08.17-.11.06,0-.22Z" style="fill:#eef1f4"/><path d="M15.11,18a.17.17,0,0,1,0,.07.12.12,0,0,1-.2.05.3.3,0,0,1-.1-.29.11.11,0,0,1,.1-.11.1.1,0,0,1,.12,0A.34.34,0,0,1,15.11,18Z" style="fill:#fafbfb"/><path d="M13.08,20.56v-.2a.09.09,0,0,1,.11,0,.11.11,0,0,1,0,.12S13.14,20.56,13.08,20.56Z" style="fill:#fafbfc"/><path d="M11.38,20.56v-.2c.09,0,.14,0,.14.1S11.47,20.56,11.38,20.56Z" style="fill:#f9fafb"/><path d="M11.92,20.77v-.18a.18.18,0,0,1,.16.05.08.08,0,0,1,0,.1A.12.12,0,0,1,11.92,20.77Z" style="fill:#f6f7f9"/><path d="M11.92,20.53v-.17c.1,0,.14,0,.14.08A.1.1,0,0,1,11.92,20.53Z" style="fill:#f8f9fa"/><path d="M12.72,20.57a.67.67,0,0,1-.06.15.12.12,0,0,1-.22,0,.29.29,0,0,1,0-.31.12.12,0,0,1,.22,0S12.7,20.52,12.72,20.57Z" style="fill:#f9fafb"/><path d="M10.87,20.41l.07.22H10.8Z" style="fill:#edf0f3"/></svg>