<svg id="Layer_1" data-name="Layer 1" xmlns="http://www.w3.org/2000/svg" viewBox="0 0 700 422.76"><text transform="translate(477.94 350.05) rotate(-45)" style="font-size:28.414342880249023px;fill:#aa8caa;font-family:Roboto-Bold, Roboto;font-weight:700">communicati<tspan x="166.62" y="0" style="letter-spacing:-0.0063474593615929975em">v</tspan><tspan x="180.79" y="0">e</tspan></text><text transform="matrix(0.71, 0.71, -0.71, 0.71, 485, 98.74)" style="font-size:30.8984375px;fill:#aa8caa;font-family:Roboto-Bold, Roboto;font-weight:700">inn<tspan x="42.8" y="0" style="letter-spacing:-0.007300884955752212em">ov</tspan><tspan x="75.44" y="0">ating</tspan></text><text transform="translate(92.93 207.98) rotate(45)" style="font-size:42.51723098754883px;fill:#aa8caa;font-family:Roboto-Bold, Roboto;font-weight:700"><tspan style="letter-spacing:-0.00927932607171757em">r</tspan><tspan x="15.11" y="0" style="letter-spacing:0.000022968628890390025em">ewa</tspan><tspan x="92.13" y="0" style="letter-spacing:-0.00927932607171757em">r</tspan><tspan x="107.25" y="0">ding</tspan></text><text transform="matrix(0.71, 0.71, -0.71, 0.71, 44.38, 245.94)" style="font-size:54.29609680175781px;fill:#a2b9c8;font-family:Roboto-Bold, Roboto;font-weight:700">engaging</text><text transform="translate(33.36 234.91) rotate(-45)" style="font-size:55.141990661621094px;fill:#a2b9c8;font-family:Roboto-Bold, Roboto;font-weight:700">inte<tspan x="93.94" y="0" style="letter-spacing:-0.014648351430930254em">r</tspan><tspan x="113.25" y="0">acti</tspan><tspan x="204.82" y="0" style="letter-spacing:-0.006347637401279074em">v</tspan><tspan x="232.33" y="0">e</tspan></text><text transform="translate(138.37 198.37) rotate(-45)" style="font-size:40.00253677368164px;fill:#aa8caa;font-family:Roboto-Bold, Roboto;font-weight:700">e<tspan x="21.62" y="0" style="letter-spacing:-0.009765387155298398em">x</tspan><tspan x="41.58" y="0">citing</tspan></text><text transform="translate(335.21 417.75) rotate(-79.76)" style="font-size:57.680789947509766px;fill:#f2f2f2;font-family:Roboto-Bold, Roboto;font-weight:700">p<tspan x="32.47" y="0" style="letter-spacing:-0.0175822861852776em">r</tspan><tspan x="52.5" y="0">oblem solving</tspan></text><text transform="matrix(0.71, -0.71, 0.71, 0.71, 487.9, 413.11)" style="font-size:50.3568229675293px;fill:#a2b9c8;font-family:Roboto-Bold, Roboto;font-weight:700">connecti<tspan x="194.99" y="0" style="letter-spacing:-0.006347523422741711em">v</tspan><tspan x="220.11" y="0">e</tspan></text><text transform="translate(500.57 55.82) rotate(45)" style="font-size:46.25568389892578px;fill:#a2b9c8;font-family:Roboto-Bold, Roboto;font-weight:700">imaginati<tspan x="194.37" y="0" style="letter-spacing:-0.006333681081014213em">v</tspan><tspan x="217.46" y="0" style="letter-spacing:-0.000021112270270047377em">e</tspan></text><text y="-138.62"/></svg>